<svg width="505" height="507" viewBox="0 0 505 507" fill="none" xmlns="http://www.w3.org/2000/svg">
<path d="M259.305 13.6084C260.118 13.6084 260.639 13.499 260.868 13.2803C261.097 13.0563 261.211 12.6344 261.211 12.0146V5.85059C261.211 5.45475 261.165 5.1735 261.071 5.00684C260.982 4.84017 260.816 4.75684 260.571 4.75684C260.441 4.75684 260.24 4.80111 259.969 4.88965C259.797 4.94173 259.563 5.02507 259.266 5.13965V4.7334L263.305 2.99121H263.586V12.1084C263.586 12.6917 263.68 13.0876 263.868 13.2959C264.055 13.5042 264.534 13.6084 265.305 13.6084V13.9912H259.305V13.6084Z" fill="black"/>
<path d="M283.51 15.6387C285.213 13.7949 286.323 12.5111 286.838 11.7871C287.63 10.6934 288.026 9.72461 288.026 8.88086C288.026 8.38086 287.872 7.91471 287.565 7.48242C287.263 7.04492 286.792 6.82617 286.151 6.82617C285.588 6.82617 285.114 7.02148 284.729 7.41211C284.521 7.62565 284.336 7.91211 284.174 8.27148H283.737C284.091 7.16211 284.581 6.3418 285.206 5.81055C285.831 5.27409 286.534 5.00586 287.315 5.00586C288.055 5.00586 288.726 5.26367 289.331 5.7793C289.935 6.28971 290.237 7.04232 290.237 8.03711C290.237 8.55794 290.094 9.0918 289.807 9.63867C289.526 10.1855 289.049 10.7793 288.377 11.4199L285.94 13.748V13.8809H288.213C289.005 13.8809 289.521 13.8158 289.76 13.6855C290.005 13.5553 290.25 13.2064 290.495 12.6387H290.877L290.159 16.0059H283.51V15.6387Z" fill="black"/>
<path d="M310.096 18.6519C310.581 18.6519 311.078 18.9149 311.588 19.4409C312.104 19.9618 312.528 20.2222 312.862 20.2222C313.435 20.2222 313.844 20.0295 314.088 19.644C314.338 19.2534 314.463 18.8107 314.463 18.3159C314.463 17.4045 314.081 16.6597 313.315 16.0815C312.877 15.7586 312.185 15.4279 311.237 15.0894V14.8315C311.883 14.6076 312.344 14.3914 312.62 14.1831C313.094 13.8237 313.331 13.3368 313.331 12.7222C313.331 12.1909 313.169 11.7873 312.846 11.5112C312.528 11.23 312.122 11.0894 311.627 11.0894C311.169 11.0894 310.755 11.256 310.385 11.5894C310.177 11.7769 309.956 12.0555 309.721 12.4253L309.385 12.2378C309.635 11.7065 309.992 11.2326 310.456 10.8159C311.195 10.1493 312.06 9.81592 313.049 9.81592C313.732 9.81592 314.325 10.0086 314.831 10.394C315.336 10.7795 315.614 11.2821 315.667 11.9019C315.667 12.3446 315.568 12.7404 315.37 13.0894C315.177 13.4331 314.862 13.717 314.424 13.9409V14.0581C315.065 14.3133 315.534 14.6987 315.831 15.2144C316.127 15.7248 316.276 16.2638 316.276 16.8315C316.276 17.9774 315.833 18.9539 314.948 19.7612C314.026 20.6102 312.859 21.0347 311.448 21.0347C310.76 21.0347 310.187 20.9045 309.729 20.644C309.271 20.3836 309.042 20.0399 309.042 19.6128C309.042 19.3836 309.122 19.1675 309.284 18.9644C309.45 18.756 309.721 18.6519 310.096 18.6519Z" fill="black"/>
<path d="M339.005 24.5894V20.0347H338.896L335.771 24.4409V24.5894H339.005ZM335.005 24.5503C335.047 24.4618 335.091 24.3836 335.138 24.3159C335.185 24.243 335.328 24.0373 335.568 23.6987L337.232 21.3315L339.38 18.4956L340.029 17.6597H341.302V24.5894H342.302V26.3706H341.302V28.6597H338.99V26.3706H335.005V24.5503Z" fill="black"/>
<path d="M357.818 37.0435C357.818 36.7726 357.907 36.5435 358.084 36.356C358.261 36.1685 358.501 36.0747 358.803 36.0747C359.188 36.0747 359.706 36.3091 360.357 36.7778C361.008 37.2414 361.514 37.4731 361.873 37.4731C362.295 37.4731 362.66 37.3247 362.967 37.0278C363.274 36.731 363.428 36.3299 363.428 35.8247C363.428 35.3091 363.253 34.8716 362.904 34.5122C362.555 34.1528 362.162 33.8742 361.725 33.6763C361.256 33.4627 360.725 33.3065 360.131 33.2075C359.745 33.145 359.128 33.0851 358.279 33.0278L359.834 27.5044H364.982L364.295 29.5435H359.85L359.498 30.8403C360.738 30.8768 361.743 31.0565 362.514 31.3794C363.962 31.9836 364.686 33.0565 364.686 34.5981C364.686 35.7231 364.253 36.6502 363.389 37.3794C362.524 38.1034 361.438 38.4653 360.131 38.4653C359.469 38.4653 358.917 38.3351 358.475 38.0747C358.037 37.8143 357.818 37.4705 357.818 37.0435Z" fill="black"/>
<path d="M384.11 44.9756C383.808 44.9756 383.616 45.0225 383.532 45.1162C383.449 45.21 383.392 45.3662 383.36 45.585C383.345 45.7152 383.329 45.9027 383.313 46.1475C383.298 46.387 383.29 46.6475 383.29 46.9287C383.29 47.4808 383.3 47.9626 383.321 48.374C383.342 48.7803 383.381 49.1344 383.438 49.4365C383.506 49.8115 383.616 50.1292 383.767 50.3896C383.923 50.6449 384.162 50.7725 384.485 50.7725C384.938 50.7725 385.233 50.5459 385.368 50.0928C385.451 49.8115 385.493 49.2412 385.493 48.3818C385.493 47.085 385.384 46.1943 385.165 45.71C384.946 45.2204 384.595 44.9756 384.11 44.9756ZM387.845 40.4053C386.715 40.6032 385.793 41.0511 385.079 41.749C384.371 42.4469 383.879 43.3428 383.603 44.4365L383.681 44.4912C383.868 44.4287 384.03 44.3818 384.165 44.3506C384.431 44.2881 384.704 44.2568 384.985 44.2568C385.772 44.2568 386.457 44.5199 387.04 45.0459C387.623 45.5719 387.915 46.3792 387.915 47.4678C387.915 48.6865 387.563 49.6162 386.86 50.2568C386.157 50.8975 385.35 51.2178 384.438 51.2178C383.423 51.2178 382.556 50.8167 381.837 50.0146C381.123 49.2074 380.767 48.0954 380.767 46.6787C380.767 44.736 381.485 43.1475 382.923 41.9131C384.23 40.7933 385.871 40.1527 387.845 39.9912V40.4053Z" fill="black"/>
<path d="M402.49 55.0718H409.139L405.381 65.8843H403.865L406.99 57.3843C406.985 57.3218 406.972 57.2801 406.951 57.2593H403.896C403.396 57.2593 403.029 57.34 402.795 57.5015C402.566 57.6629 402.36 58.0379 402.178 58.6265H401.787L402.49 55.0718Z" fill="black"/>
<path d="M426.915 77.3374C427.149 77.0197 427.303 76.7723 427.376 76.5952C427.501 76.3088 427.563 75.9598 427.563 75.5483C427.563 74.9702 427.457 74.4963 427.243 74.1265C427.03 73.7515 426.66 73.564 426.134 73.564C425.754 73.564 425.444 73.689 425.204 73.939C424.965 74.189 424.845 74.5015 424.845 74.8765C424.845 75.4702 425.144 76.0327 425.743 76.564C426.092 76.8765 426.483 77.1343 426.915 77.3374ZM424.524 81.5796C424.524 82.0275 424.595 82.4312 424.735 82.7905C424.991 83.4624 425.444 83.7983 426.095 83.7983C426.465 83.7983 426.785 83.6603 427.056 83.3843C427.332 83.1082 427.47 82.6447 427.47 81.9937C427.47 81.3634 427.264 80.8218 426.853 80.3687C426.597 80.0874 426.092 79.702 425.337 79.2124C425.035 79.6759 424.837 80.0301 424.743 80.2749C424.597 80.6447 424.524 81.0796 424.524 81.5796ZM422.603 81.6187C422.603 80.8009 422.894 80.1551 423.478 79.6812C423.795 79.4155 424.256 79.1838 424.86 78.9858V78.8374C424.735 78.8062 424.488 78.6395 424.118 78.3374C423.748 78.0301 423.475 77.7515 423.298 77.5015C423.084 77.2046 422.941 76.9312 422.868 76.6812C422.8 76.4259 422.767 76.1603 422.767 75.8843C422.767 75.1082 423.1 74.4494 423.767 73.9077C424.433 73.366 425.306 73.0952 426.384 73.0952C427.384 73.0952 428.149 73.3218 428.681 73.7749C429.217 74.2228 429.485 74.7541 429.485 75.3687C429.485 75.9989 429.212 76.5249 428.665 76.9468C428.363 77.1812 427.946 77.3921 427.415 77.5796V77.689C428.175 78.2358 428.696 78.6812 428.978 79.0249C429.457 79.6082 429.696 80.2879 429.696 81.064C429.696 82.09 429.342 82.8895 428.634 83.4624C427.925 84.0353 427.022 84.3218 425.923 84.3218C425.105 84.3218 424.347 84.0952 423.649 83.6421C422.951 83.1838 422.603 82.5093 422.603 81.6187Z" fill="black"/>
<path d="M443.771 98.3579C443.891 98.3579 444.026 98.3345 444.177 98.2876C444.333 98.2407 444.427 98.1965 444.458 98.1548C444.485 98.1235 444.516 97.936 444.552 97.5923C444.589 97.2485 444.607 96.8423 444.607 96.3735C444.607 95.8527 444.597 95.3866 444.576 94.9751C444.555 94.5584 444.516 94.1991 444.458 93.897C444.391 93.5376 444.302 93.259 444.193 93.061C444.005 92.7277 443.742 92.561 443.404 92.561C443.029 92.561 442.758 92.7459 442.591 93.1157C442.425 93.4803 442.341 94.0194 442.341 94.7329C442.341 95.936 442.451 96.8423 442.669 97.4517C442.888 98.0558 443.255 98.3579 443.771 98.3579ZM440.052 102.936C440.912 102.764 441.63 102.486 442.208 102.1C443.245 101.397 443.94 100.329 444.294 98.897L444.216 98.8423C443.998 98.9152 443.823 98.9673 443.693 98.9985C443.438 99.0558 443.169 99.0845 442.888 99.0845C442.05 99.0845 441.352 98.7954 440.794 98.2173C440.237 97.6392 439.958 96.8527 439.958 95.8579C439.958 94.7069 440.302 93.7954 440.99 93.1235C441.677 92.4517 442.49 92.1157 443.427 92.1157C444.505 92.1157 445.391 92.5324 446.083 93.3657C446.781 94.1938 447.13 95.2902 447.13 96.6548C447.13 98.7069 446.339 100.355 444.755 101.6C443.427 102.647 441.86 103.228 440.052 103.342V102.936Z" fill="black"/>
<path d="M449.991 123.556C450.803 123.556 451.324 123.447 451.553 123.228C451.782 123.004 451.897 122.582 451.897 121.962V115.798C451.897 115.403 451.85 115.121 451.756 114.955C451.668 114.788 451.501 114.705 451.256 114.705C451.126 114.705 450.926 114.749 450.655 114.837C450.483 114.889 450.249 114.973 449.952 115.087V114.681L453.991 112.939H454.272V122.056C454.272 122.639 454.366 123.035 454.553 123.244C454.741 123.452 455.22 123.556 455.991 123.556V123.939H449.991V123.556ZM459.803 120.384C459.814 121.686 459.91 122.567 460.092 123.025C460.275 123.478 460.551 123.705 460.92 123.705C461.384 123.705 461.696 123.283 461.858 122.439C461.946 121.975 461.991 121.291 461.991 120.384V116.72C461.991 115.423 461.897 114.548 461.709 114.095C461.527 113.637 461.259 113.408 460.905 113.408C460.545 113.408 460.272 113.639 460.084 114.103C459.897 114.561 459.803 115.434 459.803 116.72V120.384ZM457.288 118.626C457.288 116.715 457.715 115.236 458.569 114.189C459.246 113.356 460.022 112.939 460.897 112.939C461.907 112.939 462.759 113.452 463.452 114.478C464.155 115.53 464.506 116.853 464.506 118.447C464.506 120.327 464.108 121.791 463.311 122.837C462.639 123.718 461.837 124.158 460.905 124.158C460.249 124.158 459.689 123.965 459.225 123.58C458.762 123.194 458.366 122.697 458.038 122.087C457.756 121.572 457.558 120.981 457.444 120.314C457.376 119.923 457.324 119.361 457.288 118.626Z" fill="black"/>
<path d="M463.151 146.083C463.963 146.083 464.484 145.973 464.713 145.754C464.943 145.53 465.057 145.109 465.057 144.489V138.325C465.057 137.929 465.01 137.648 464.917 137.481C464.828 137.314 464.661 137.231 464.417 137.231C464.286 137.231 464.086 137.275 463.815 137.364C463.643 137.416 463.409 137.499 463.112 137.614V137.208L467.151 135.465H467.432V144.583C467.432 145.166 467.526 145.562 467.713 145.77C467.901 145.978 468.38 146.083 469.151 146.083V146.465H463.151V146.083ZM470.276 146.083C471.088 146.083 471.609 145.973 471.838 145.754C472.068 145.53 472.182 145.109 472.182 144.489V138.325C472.182 137.929 472.135 137.648 472.042 137.481C471.953 137.314 471.786 137.231 471.542 137.231C471.411 137.231 471.211 137.275 470.94 137.364C470.768 137.416 470.534 137.499 470.237 137.614V137.208L474.276 135.465H474.557V144.583C474.557 145.166 474.651 145.562 474.838 145.77C475.026 145.978 475.505 146.083 476.276 146.083V146.465H470.276V146.083Z" fill="black"/>
<path d="M473.3 168.534C474.112 168.534 474.633 168.424 474.862 168.206C475.091 167.982 475.206 167.56 475.206 166.94V160.776C475.206 160.38 475.159 160.099 475.065 159.932C474.977 159.765 474.81 159.682 474.565 159.682C474.435 159.682 474.235 159.726 473.964 159.815C473.792 159.867 473.558 159.95 473.261 160.065V159.659L477.3 157.917H477.581V167.034C477.581 167.617 477.675 168.013 477.862 168.221C478.05 168.43 478.529 168.534 479.3 168.534V168.917H473.3V168.534ZM480.503 168.549C482.206 166.706 483.315 165.422 483.831 164.698C484.623 163.604 485.019 162.635 485.019 161.792C485.019 161.292 484.865 160.825 484.558 160.393C484.256 159.956 483.784 159.737 483.144 159.737C482.581 159.737 482.107 159.932 481.722 160.323C481.513 160.536 481.328 160.823 481.167 161.182H480.729C481.084 160.073 481.573 159.252 482.198 158.721C482.823 158.185 483.526 157.917 484.308 157.917C485.047 157.917 485.719 158.174 486.323 158.69C486.927 159.2 487.229 159.953 487.229 160.948C487.229 161.469 487.086 162.002 486.8 162.549C486.519 163.096 486.042 163.69 485.37 164.331L482.933 166.659V166.792H485.206C485.998 166.792 486.513 166.726 486.753 166.596C486.998 166.466 487.243 166.117 487.487 165.549H487.87L487.151 168.917H480.503V168.549Z" fill="black"/>
<path d="M481.73 194.154C482.543 194.154 483.064 194.045 483.293 193.826C483.522 193.602 483.637 193.18 483.637 192.561V186.396C483.637 186.001 483.59 185.719 483.496 185.553C483.408 185.386 483.241 185.303 482.996 185.303C482.866 185.303 482.665 185.347 482.395 185.436C482.223 185.488 481.988 185.571 481.691 185.686V185.279L485.73 183.537H486.012V192.654C486.012 193.238 486.105 193.633 486.293 193.842C486.48 194.05 486.96 194.154 487.73 194.154V194.537H481.73V194.154ZM489.957 192.396C490.441 192.396 490.939 192.66 491.449 193.186C491.965 193.706 492.389 193.967 492.723 193.967C493.296 193.967 493.704 193.774 493.949 193.389C494.199 192.998 494.324 192.555 494.324 192.061C494.324 191.149 493.941 190.404 493.176 189.826C492.738 189.503 492.046 189.173 491.098 188.834V188.576C491.743 188.352 492.204 188.136 492.48 187.928C492.954 187.568 493.191 187.081 493.191 186.467C493.191 185.936 493.03 185.532 492.707 185.256C492.389 184.975 491.983 184.834 491.488 184.834C491.03 184.834 490.616 185.001 490.246 185.334C490.038 185.521 489.816 185.8 489.582 186.17L489.246 185.982C489.496 185.451 489.853 184.977 490.316 184.561C491.056 183.894 491.921 183.561 492.91 183.561C493.592 183.561 494.186 183.753 494.691 184.139C495.197 184.524 495.475 185.027 495.527 185.646C495.527 186.089 495.428 186.485 495.23 186.834C495.038 187.178 494.723 187.462 494.285 187.686V187.803C494.926 188.058 495.395 188.443 495.691 188.959C495.988 189.469 496.137 190.008 496.137 190.576C496.137 191.722 495.694 192.699 494.809 193.506C493.887 194.355 492.72 194.779 491.309 194.779C490.621 194.779 490.048 194.649 489.59 194.389C489.132 194.128 488.902 193.785 488.902 193.357C488.902 193.128 488.983 192.912 489.145 192.709C489.311 192.501 489.582 192.396 489.957 192.396Z" fill="black"/>
<path d="M487.094 219.45C487.906 219.45 488.427 219.34 488.656 219.122C488.885 218.898 489 218.476 489 217.856V211.692C489 211.296 488.953 211.015 488.859 210.848C488.771 210.681 488.604 210.598 488.359 210.598C488.229 210.598 488.029 210.642 487.758 210.731C487.586 210.783 487.352 210.866 487.055 210.981V210.575L491.094 208.833H491.375V217.95C491.375 218.533 491.469 218.929 491.656 219.137C491.844 219.346 492.323 219.45 493.094 219.45V219.833H487.094V219.45ZM498.312 215.762V211.208H498.203L495.078 215.614V215.762H498.312ZM494.312 215.723C494.354 215.635 494.398 215.556 494.445 215.489C494.492 215.416 494.635 215.21 494.875 214.872L496.539 212.504L498.688 209.668L499.336 208.833H500.609V215.762H501.609V217.543H500.609V219.833H498.297V217.543H494.312V215.723Z" fill="black"/>
<path d="M489.792 246.111C490.604 246.111 491.125 246.001 491.354 245.783C491.583 245.559 491.698 245.137 491.698 244.517V238.353C491.698 237.957 491.651 237.676 491.557 237.509C491.469 237.343 491.302 237.259 491.057 237.259C490.927 237.259 490.726 237.304 490.456 237.392C490.284 237.444 490.049 237.528 489.752 237.642V237.236L493.792 235.494H494.073V244.611C494.073 245.194 494.167 245.59 494.354 245.798C494.542 246.007 495.021 246.111 495.792 246.111V246.494H489.792V246.111ZM497.073 245.22C497.073 244.949 497.161 244.72 497.338 244.533C497.515 244.345 497.755 244.251 498.057 244.251C498.443 244.251 498.961 244.486 499.612 244.955C500.263 245.418 500.768 245.65 501.127 245.65C501.549 245.65 501.914 245.501 502.221 245.205C502.528 244.908 502.682 244.507 502.682 244.001C502.682 243.486 502.508 243.048 502.159 242.689C501.81 242.33 501.417 242.051 500.979 241.853C500.51 241.639 499.979 241.483 499.385 241.384C499 241.322 498.383 241.262 497.534 241.205L499.088 235.681H504.237L503.549 237.72H499.104L498.752 239.017C499.992 239.054 500.997 239.233 501.768 239.556C503.216 240.16 503.94 241.233 503.94 242.775C503.94 243.9 503.508 244.827 502.643 245.556C501.778 246.28 500.693 246.642 499.385 246.642C498.724 246.642 498.172 246.512 497.729 246.251C497.292 245.991 497.073 245.647 497.073 245.22Z" fill="black"/>
<path d="M489.597 272.728C490.41 272.728 490.931 272.618 491.16 272.399C491.389 272.175 491.503 271.754 491.503 271.134V264.97C491.503 264.574 491.457 264.293 491.363 264.126C491.274 263.959 491.108 263.876 490.863 263.876C490.733 263.876 490.532 263.92 490.261 264.009C490.089 264.061 489.855 264.144 489.558 264.259V263.853L493.597 262.11H493.878V271.228C493.878 271.811 493.972 272.207 494.16 272.415C494.347 272.623 494.826 272.728 495.597 272.728V273.11H489.597V272.728ZM500.308 267.095C500.006 267.095 499.813 267.142 499.73 267.235C499.647 267.329 499.589 267.485 499.558 267.704C499.542 267.834 499.527 268.022 499.511 268.267C499.496 268.506 499.488 268.767 499.488 269.048C499.488 269.6 499.498 270.082 499.519 270.493C499.54 270.899 499.579 271.254 499.636 271.556C499.704 271.931 499.813 272.248 499.964 272.509C500.121 272.764 500.36 272.892 500.683 272.892C501.136 272.892 501.431 272.665 501.566 272.212C501.649 271.931 501.691 271.36 501.691 270.501C501.691 269.204 501.582 268.313 501.363 267.829C501.144 267.34 500.792 267.095 500.308 267.095ZM504.042 262.524C502.912 262.722 501.99 263.17 501.277 263.868C500.569 264.566 500.076 265.462 499.8 266.556L499.878 266.61C500.066 266.548 500.227 266.501 500.363 266.47C500.628 266.407 500.902 266.376 501.183 266.376C501.97 266.376 502.654 266.639 503.238 267.165C503.821 267.691 504.113 268.498 504.113 269.587C504.113 270.806 503.761 271.735 503.058 272.376C502.355 273.017 501.548 273.337 500.636 273.337C499.621 273.337 498.753 272.936 498.035 272.134C497.321 271.326 496.964 270.215 496.964 268.798C496.964 266.855 497.683 265.267 499.121 264.032C500.428 262.912 502.069 262.272 504.042 262.11V262.524Z" fill="black"/>
<path d="M486.839 297.359C487.652 297.359 488.173 297.25 488.402 297.031C488.631 296.807 488.746 296.385 488.746 295.766V289.602C488.746 289.206 488.699 288.924 488.605 288.758C488.516 288.591 488.35 288.508 488.105 288.508C487.975 288.508 487.774 288.552 487.503 288.641C487.332 288.693 487.097 288.776 486.8 288.891V288.484L490.839 286.742H491.121V295.859C491.121 296.443 491.214 296.839 491.402 297.047C491.589 297.255 492.069 297.359 492.839 297.359V297.742H486.839V297.359ZM494.746 286.93H501.394L497.636 297.742H496.121L499.246 289.242C499.24 289.18 499.227 289.138 499.207 289.117H496.152C495.652 289.117 495.285 289.198 495.05 289.359C494.821 289.521 494.615 289.896 494.433 290.484H494.042L494.746 286.93Z" fill="black"/>
<path d="M481.331 322.536C482.143 322.536 482.664 322.427 482.893 322.208C483.122 321.984 483.237 321.562 483.237 320.942V314.778C483.237 314.382 483.19 314.101 483.096 313.935C483.008 313.768 482.841 313.685 482.596 313.685C482.466 313.685 482.265 313.729 481.995 313.817C481.823 313.869 481.588 313.953 481.292 314.067V313.661L485.331 311.919H485.612V321.036C485.612 321.619 485.706 322.015 485.893 322.224C486.081 322.432 486.56 322.536 487.331 322.536V322.919H481.331V322.536ZM492.979 316.161C493.213 315.843 493.367 315.596 493.44 315.419C493.565 315.132 493.627 314.784 493.627 314.372C493.627 313.794 493.521 313.32 493.307 312.95C493.094 312.575 492.724 312.388 492.198 312.388C491.818 312.388 491.508 312.513 491.268 312.763C491.028 313.013 490.909 313.325 490.909 313.7C490.909 314.294 491.208 314.856 491.807 315.388C492.156 315.7 492.547 315.958 492.979 316.161ZM490.588 320.403C490.588 320.851 490.659 321.255 490.799 321.614C491.055 322.286 491.508 322.622 492.159 322.622C492.528 322.622 492.849 322.484 493.12 322.208C493.396 321.932 493.534 321.468 493.534 320.817C493.534 320.187 493.328 319.646 492.917 319.192C492.661 318.911 492.156 318.526 491.401 318.036C491.099 318.5 490.901 318.854 490.807 319.099C490.661 319.468 490.588 319.903 490.588 320.403ZM488.667 320.442C488.667 319.625 488.958 318.979 489.542 318.505C489.859 318.239 490.32 318.007 490.924 317.81V317.661C490.799 317.63 490.552 317.463 490.182 317.161C489.812 316.854 489.539 316.575 489.362 316.325C489.148 316.028 489.005 315.755 488.932 315.505C488.864 315.25 488.831 314.984 488.831 314.708C488.831 313.932 489.164 313.273 489.831 312.731C490.497 312.19 491.37 311.919 492.448 311.919C493.448 311.919 494.213 312.146 494.745 312.599C495.281 313.047 495.549 313.578 495.549 314.192C495.549 314.823 495.276 315.349 494.729 315.771C494.427 316.005 494.01 316.216 493.479 316.403V316.513C494.239 317.06 494.76 317.505 495.042 317.849C495.521 318.432 495.76 319.112 495.76 319.888C495.76 320.914 495.406 321.713 494.698 322.286C493.989 322.859 493.086 323.146 491.987 323.146C491.169 323.146 490.411 322.919 489.713 322.466C489.015 322.007 488.667 321.333 488.667 320.442Z" fill="black"/>
<path d="M472.758 348.042C473.57 348.042 474.091 347.932 474.32 347.713C474.549 347.489 474.664 347.068 474.664 346.448V340.284C474.664 339.888 474.617 339.607 474.523 339.44C474.435 339.273 474.268 339.19 474.023 339.19C473.893 339.19 473.693 339.234 473.422 339.323C473.25 339.375 473.016 339.458 472.719 339.573V339.167L476.758 337.424H477.039V346.542C477.039 347.125 477.133 347.521 477.32 347.729C477.508 347.937 477.987 348.042 478.758 348.042V348.424H472.758V348.042ZM483.883 343.667C484.003 343.667 484.138 343.643 484.289 343.596C484.445 343.549 484.539 343.505 484.57 343.463C484.596 343.432 484.628 343.245 484.664 342.901C484.701 342.557 484.719 342.151 484.719 341.682C484.719 341.161 484.708 340.695 484.688 340.284C484.667 339.867 484.628 339.508 484.57 339.206C484.503 338.846 484.414 338.568 484.305 338.37C484.117 338.036 483.854 337.87 483.516 337.87C483.141 337.87 482.87 338.055 482.703 338.424C482.536 338.789 482.453 339.328 482.453 340.042C482.453 341.245 482.562 342.151 482.781 342.76C483 343.364 483.367 343.667 483.883 343.667ZM480.164 348.245C481.023 348.073 481.742 347.794 482.32 347.409C483.357 346.706 484.052 345.638 484.406 344.206L484.328 344.151C484.109 344.224 483.935 344.276 483.805 344.307C483.549 344.364 483.281 344.393 483 344.393C482.161 344.393 481.464 344.104 480.906 343.526C480.349 342.948 480.07 342.161 480.07 341.167C480.07 340.015 480.414 339.104 481.102 338.432C481.789 337.76 482.602 337.424 483.539 337.424C484.617 337.424 485.503 337.841 486.195 338.674C486.893 339.502 487.242 340.599 487.242 341.963C487.242 344.015 486.451 345.664 484.867 346.909C483.539 347.956 481.971 348.536 480.164 348.651V348.245Z" fill="black"/>
<path d="M460.859 372.002C462.562 370.158 463.672 368.874 464.188 368.15C464.979 367.057 465.375 366.088 465.375 365.244C465.375 364.744 465.221 364.278 464.914 363.846C464.612 363.408 464.141 363.189 463.5 363.189C462.938 363.189 462.464 363.385 462.078 363.775C461.87 363.989 461.685 364.275 461.523 364.635H461.086C461.44 363.525 461.93 362.705 462.555 362.174C463.18 361.637 463.883 361.369 464.664 361.369C465.404 361.369 466.076 361.627 466.68 362.143C467.284 362.653 467.586 363.406 467.586 364.4C467.586 364.921 467.443 365.455 467.156 366.002C466.875 366.549 466.398 367.143 465.727 367.783L463.289 370.111V370.244H465.562C466.354 370.244 466.87 370.179 467.109 370.049C467.354 369.919 467.599 369.57 467.844 369.002H468.227L467.508 372.369H460.859V372.002ZM471.469 368.814C471.479 370.117 471.576 370.997 471.758 371.455C471.94 371.908 472.216 372.135 472.586 372.135C473.049 372.135 473.362 371.713 473.523 370.869C473.612 370.406 473.656 369.721 473.656 368.814V365.15C473.656 363.854 473.562 362.979 473.375 362.525C473.193 362.067 472.924 361.838 472.57 361.838C472.211 361.838 471.938 362.07 471.75 362.533C471.562 362.992 471.469 363.864 471.469 365.15V368.814ZM468.953 367.057C468.953 365.145 469.38 363.666 470.234 362.619C470.911 361.786 471.688 361.369 472.562 361.369C473.573 361.369 474.424 361.882 475.117 362.908C475.82 363.96 476.172 365.283 476.172 366.877C476.172 368.757 475.773 370.221 474.977 371.268C474.305 372.148 473.503 372.588 472.57 372.588C471.914 372.588 471.354 372.395 470.891 372.01C470.427 371.624 470.031 371.127 469.703 370.518C469.422 370.002 469.224 369.411 469.109 368.744C469.042 368.354 468.99 367.791 468.953 367.057Z" fill="black"/>
<path d="M447.424 394.32C449.127 392.477 450.237 391.193 450.752 390.469C451.544 389.375 451.94 388.406 451.94 387.562C451.94 387.062 451.786 386.596 451.479 386.164C451.177 385.727 450.706 385.508 450.065 385.508C449.502 385.508 449.028 385.703 448.643 386.094C448.435 386.307 448.25 386.594 448.088 386.953H447.651C448.005 385.844 448.495 385.023 449.12 384.492C449.745 383.956 450.448 383.688 451.229 383.688C451.969 383.688 452.64 383.945 453.245 384.461C453.849 384.971 454.151 385.724 454.151 386.719C454.151 387.24 454.008 387.773 453.721 388.32C453.44 388.867 452.963 389.461 452.292 390.102L449.854 392.43V392.562H452.127C452.919 392.562 453.435 392.497 453.674 392.367C453.919 392.237 454.164 391.888 454.409 391.32H454.792L454.073 394.688H447.424V394.32ZM456.221 394.305C457.034 394.305 457.555 394.195 457.784 393.977C458.013 393.753 458.127 393.331 458.127 392.711V386.547C458.127 386.151 458.081 385.87 457.987 385.703C457.898 385.536 457.732 385.453 457.487 385.453C457.357 385.453 457.156 385.497 456.885 385.586C456.713 385.638 456.479 385.721 456.182 385.836V385.43L460.221 383.688H460.502V392.805C460.502 393.388 460.596 393.784 460.784 393.992C460.971 394.201 461.45 394.305 462.221 394.305V394.688H456.221V394.305Z" fill="black"/>
<path d="M431.824 414.927C433.527 413.083 434.636 411.799 435.152 411.075C435.944 409.981 436.339 409.013 436.339 408.169C436.339 407.669 436.186 407.203 435.878 406.771C435.576 406.333 435.105 406.114 434.464 406.114C433.902 406.114 433.428 406.31 433.042 406.7C432.834 406.914 432.649 407.2 432.488 407.56H432.05C432.404 406.45 432.894 405.63 433.519 405.099C434.144 404.562 434.847 404.294 435.628 404.294C436.368 404.294 437.04 404.552 437.644 405.067C438.248 405.578 438.55 406.33 438.55 407.325C438.55 407.846 438.407 408.38 438.121 408.927C437.839 409.474 437.363 410.067 436.691 410.708L434.253 413.036V413.169H436.527C437.319 413.169 437.834 413.104 438.074 412.974C438.319 412.843 438.563 412.494 438.808 411.927H439.191L438.472 415.294H431.824V414.927ZM439.824 414.927C441.527 413.083 442.636 411.799 443.152 411.075C443.944 409.981 444.339 409.013 444.339 408.169C444.339 407.669 444.186 407.203 443.878 406.771C443.576 406.333 443.105 406.114 442.464 406.114C441.902 406.114 441.428 406.31 441.042 406.7C440.834 406.914 440.649 407.2 440.488 407.56H440.05C440.404 406.45 440.894 405.63 441.519 405.099C442.144 404.562 442.847 404.294 443.628 404.294C444.368 404.294 445.04 404.552 445.644 405.067C446.248 405.578 446.55 406.33 446.55 407.325C446.55 407.846 446.407 408.38 446.121 408.927C445.839 409.474 445.363 410.067 444.691 410.708L442.253 413.036V413.169H444.527C445.319 413.169 445.834 413.104 446.074 412.974C446.319 412.843 446.563 412.494 446.808 411.927H447.191L446.472 415.294H439.824V414.927Z" fill="black"/>
<path d="M414.204 433.718C415.907 431.875 417.017 430.591 417.532 429.867C418.324 428.773 418.72 427.804 418.72 426.96C418.72 426.46 418.566 425.994 418.259 425.562C417.957 425.125 417.485 424.906 416.845 424.906C416.282 424.906 415.808 425.101 415.423 425.492C415.215 425.705 415.03 425.992 414.868 426.351H414.431C414.785 425.242 415.274 424.421 415.899 423.89C416.524 423.354 417.228 423.085 418.009 423.085C418.748 423.085 419.42 423.343 420.024 423.859C420.629 424.369 420.931 425.122 420.931 426.117C420.931 426.638 420.787 427.171 420.501 427.718C420.22 428.265 419.743 428.859 419.071 429.5L416.634 431.828V431.96H418.907C419.699 431.96 420.215 431.895 420.454 431.765C420.699 431.635 420.944 431.286 421.188 430.718H421.571L420.853 434.085H414.204V433.718ZM423.228 431.945C423.712 431.945 424.209 432.208 424.72 432.734C425.235 433.255 425.66 433.515 425.993 433.515C426.566 433.515 426.975 433.322 427.22 432.937C427.47 432.546 427.595 432.104 427.595 431.609C427.595 430.697 427.212 429.953 426.446 429.375C426.009 429.052 425.316 428.721 424.368 428.382V428.125C425.014 427.901 425.475 427.684 425.751 427.476C426.225 427.117 426.462 426.63 426.462 426.015C426.462 425.484 426.3 425.08 425.978 424.804C425.66 424.523 425.254 424.382 424.759 424.382C424.3 424.382 423.886 424.549 423.517 424.882C423.308 425.07 423.087 425.348 422.853 425.718L422.517 425.531C422.767 425 423.123 424.526 423.587 424.109C424.326 423.442 425.191 423.109 426.181 423.109C426.863 423.109 427.457 423.302 427.962 423.687C428.467 424.072 428.746 424.575 428.798 425.195C428.798 425.638 428.699 426.033 428.501 426.382C428.308 426.726 427.993 427.01 427.556 427.234V427.351C428.196 427.606 428.665 427.992 428.962 428.507C429.259 429.018 429.407 429.557 429.407 430.125C429.407 431.27 428.965 432.247 428.079 433.054C427.157 433.903 425.991 434.328 424.579 434.328C423.892 434.328 423.319 434.197 422.86 433.937C422.402 433.677 422.173 433.333 422.173 432.906C422.173 432.677 422.254 432.46 422.415 432.257C422.582 432.049 422.853 431.945 423.228 431.945Z" fill="black"/>
<path d="M394.696 450.574C396.399 448.73 397.508 447.447 398.024 446.723C398.816 445.629 399.211 444.66 399.211 443.816C399.211 443.316 399.058 442.85 398.75 442.418C398.448 441.98 397.977 441.762 397.336 441.762C396.774 441.762 396.3 441.957 395.915 442.348C395.706 442.561 395.521 442.848 395.36 443.207H394.922C395.277 442.098 395.766 441.277 396.391 440.746C397.016 440.21 397.719 439.941 398.5 439.941C399.24 439.941 399.912 440.199 400.516 440.715C401.12 441.225 401.422 441.978 401.422 442.973C401.422 443.493 401.279 444.027 400.993 444.574C400.711 445.121 400.235 445.715 399.563 446.355L397.125 448.684V448.816H399.399C400.191 448.816 400.706 448.751 400.946 448.621C401.191 448.491 401.435 448.142 401.68 447.574H402.063L401.344 450.941H394.696V450.574ZM406.711 446.871V442.316H406.602L403.477 446.723V446.871H406.711ZM402.711 446.832C402.753 446.743 402.797 446.665 402.844 446.598C402.891 446.525 403.034 446.319 403.274 445.98L404.938 443.613L407.086 440.777L407.735 439.941H409.008V446.871H410.008V448.652H409.008V450.941H406.696V448.652H402.711V446.832Z" fill="black"/>
<path d="M373.411 465.358C375.114 463.514 376.224 462.23 376.739 461.506C377.531 460.413 377.927 459.444 377.927 458.6C377.927 458.1 377.773 457.634 377.466 457.202C377.164 456.764 376.692 456.545 376.052 456.545C375.489 456.545 375.015 456.741 374.63 457.131C374.422 457.345 374.237 457.631 374.075 457.991H373.638C373.992 456.881 374.481 456.061 375.106 455.53C375.731 454.993 376.435 454.725 377.216 454.725C377.955 454.725 378.627 454.983 379.231 455.499C379.836 456.009 380.138 456.762 380.138 457.756C380.138 458.277 379.994 458.811 379.708 459.358C379.427 459.905 378.95 460.499 378.278 461.139L375.841 463.467V463.6H378.114C378.906 463.6 379.422 463.535 379.661 463.405C379.906 463.275 380.151 462.926 380.396 462.358H380.778L380.06 465.725H373.411V465.358ZM381.489 464.452C381.489 464.181 381.578 463.952 381.755 463.764C381.932 463.577 382.172 463.483 382.474 463.483C382.859 463.483 383.377 463.717 384.028 464.186C384.679 464.65 385.185 464.881 385.544 464.881C385.966 464.881 386.33 464.733 386.638 464.436C386.945 464.139 387.099 463.738 387.099 463.233C387.099 462.717 386.924 462.28 386.575 461.92C386.226 461.561 385.833 461.282 385.396 461.084C384.927 460.871 384.396 460.715 383.802 460.616C383.416 460.553 382.799 460.493 381.95 460.436L383.505 454.913H388.653L387.966 456.952H383.521L383.169 458.249C384.409 458.285 385.414 458.465 386.185 458.788C387.632 459.392 388.356 460.465 388.356 462.006C388.356 463.131 387.924 464.058 387.06 464.788C386.195 465.512 385.109 465.874 383.802 465.874C383.14 465.874 382.588 465.743 382.146 465.483C381.708 465.222 381.489 464.879 381.489 464.452Z" fill="black"/>
<path d="M350.446 477.914C352.149 476.07 353.259 474.786 353.774 474.062C354.566 472.969 354.962 472 354.962 471.156C354.962 470.656 354.808 470.19 354.501 469.758C354.199 469.32 353.728 469.102 353.087 469.102C352.524 469.102 352.05 469.297 351.665 469.688C351.457 469.901 351.272 470.188 351.11 470.547H350.673C351.027 469.438 351.517 468.617 352.142 468.086C352.767 467.549 353.47 467.281 354.251 467.281C354.991 467.281 355.662 467.539 356.267 468.055C356.871 468.565 357.173 469.318 357.173 470.312C357.173 470.833 357.03 471.367 356.743 471.914C356.462 472.461 355.985 473.055 355.313 473.695L352.876 476.023V476.156H355.149C355.941 476.156 356.457 476.091 356.696 475.961C356.941 475.831 357.186 475.482 357.431 474.914H357.813L357.095 478.281H350.446V477.914ZM361.954 472.266C361.652 472.266 361.459 472.312 361.376 472.406C361.293 472.5 361.235 472.656 361.204 472.875C361.188 473.005 361.173 473.193 361.157 473.438C361.142 473.677 361.134 473.938 361.134 474.219C361.134 474.771 361.144 475.253 361.165 475.664C361.186 476.07 361.225 476.424 361.282 476.727C361.35 477.102 361.459 477.419 361.61 477.68C361.767 477.935 362.006 478.062 362.329 478.062C362.782 478.062 363.076 477.836 363.212 477.383C363.295 477.102 363.337 476.531 363.337 475.672C363.337 474.375 363.228 473.484 363.009 473C362.79 472.51 362.438 472.266 361.954 472.266ZM365.688 467.695C364.558 467.893 363.636 468.341 362.923 469.039C362.215 469.737 361.722 470.633 361.446 471.727L361.524 471.781C361.712 471.719 361.873 471.672 362.009 471.641C362.274 471.578 362.548 471.547 362.829 471.547C363.616 471.547 364.3 471.81 364.884 472.336C365.467 472.862 365.759 473.669 365.759 474.758C365.759 475.977 365.407 476.906 364.704 477.547C364.001 478.188 363.194 478.508 362.282 478.508C361.267 478.508 360.399 478.107 359.681 477.305C358.967 476.497 358.61 475.385 358.61 473.969C358.61 472.026 359.329 470.438 360.767 469.203C362.074 468.083 363.715 467.443 365.688 467.281V467.695Z" fill="black"/>
<path d="M325.876 488.063C327.58 486.219 328.689 484.935 329.205 484.211C329.996 483.118 330.392 482.149 330.392 481.305C330.392 480.805 330.238 480.339 329.931 479.907C329.629 479.469 329.158 479.25 328.517 479.25C327.955 479.25 327.481 479.446 327.095 479.836C326.887 480.05 326.702 480.336 326.541 480.696H326.103C326.457 479.586 326.947 478.766 327.572 478.235C328.197 477.698 328.9 477.43 329.681 477.43C330.421 477.43 331.093 477.688 331.697 478.204C332.301 478.714 332.603 479.467 332.603 480.461C332.603 480.982 332.46 481.516 332.173 482.063C331.892 482.61 331.416 483.204 330.744 483.844L328.306 486.172V486.305H330.58C331.371 486.305 331.887 486.24 332.126 486.11C332.371 485.98 332.616 485.631 332.861 485.063H333.244L332.525 488.43H325.876V488.063ZM334.58 477.618H341.228L337.47 488.43H335.955L339.08 479.93C339.074 479.868 339.061 479.826 339.041 479.805H335.986C335.486 479.805 335.119 479.886 334.884 480.047C334.655 480.209 334.449 480.584 334.267 481.172H333.876L334.58 477.618Z" fill="black"/>
<path d="M301.56 495.177C303.263 493.333 304.373 492.05 304.888 491.326C305.68 490.232 306.076 489.263 306.076 488.419C306.076 487.919 305.922 487.453 305.615 487.021C305.313 486.583 304.841 486.365 304.201 486.365C303.638 486.365 303.164 486.56 302.779 486.951C302.57 487.164 302.386 487.451 302.224 487.81H301.787C302.141 486.701 302.63 485.88 303.255 485.349C303.88 484.813 304.583 484.544 305.365 484.544C306.104 484.544 306.776 484.802 307.38 485.318C307.985 485.828 308.287 486.581 308.287 487.576C308.287 488.097 308.143 488.63 307.857 489.177C307.576 489.724 307.099 490.318 306.427 490.958L303.99 493.287V493.419H306.263C307.055 493.419 307.57 493.354 307.81 493.224C308.055 493.094 308.3 492.745 308.544 492.177H308.927L308.208 495.544H301.56V495.177ZM314.005 488.787C314.24 488.469 314.393 488.222 314.466 488.044C314.591 487.758 314.654 487.409 314.654 486.998C314.654 486.419 314.547 485.945 314.333 485.576C314.12 485.201 313.75 485.013 313.224 485.013C312.844 485.013 312.534 485.138 312.294 485.388C312.055 485.638 311.935 485.951 311.935 486.326C311.935 486.919 312.235 487.482 312.833 488.013C313.182 488.326 313.573 488.583 314.005 488.787ZM311.615 493.029C311.615 493.477 311.685 493.88 311.826 494.24C312.081 494.912 312.534 495.248 313.185 495.248C313.555 495.248 313.875 495.11 314.146 494.833C314.422 494.557 314.56 494.094 314.56 493.443C314.56 492.813 314.354 492.271 313.943 491.818C313.688 491.537 313.182 491.151 312.427 490.662C312.125 491.125 311.927 491.479 311.833 491.724C311.688 492.094 311.615 492.529 311.615 493.029ZM309.693 493.068C309.693 492.25 309.985 491.604 310.568 491.13C310.886 490.865 311.347 490.633 311.951 490.435V490.287C311.826 490.255 311.578 490.089 311.208 489.787C310.839 489.479 310.565 489.201 310.388 488.951C310.175 488.654 310.031 488.38 309.958 488.13C309.891 487.875 309.857 487.61 309.857 487.333C309.857 486.557 310.19 485.899 310.857 485.357C311.524 484.815 312.396 484.544 313.474 484.544C314.474 484.544 315.24 484.771 315.771 485.224C316.307 485.672 316.576 486.203 316.576 486.818C316.576 487.448 316.302 487.974 315.755 488.396C315.453 488.63 315.037 488.841 314.505 489.029V489.138C315.266 489.685 315.787 490.13 316.068 490.474C316.547 491.057 316.787 491.737 316.787 492.513C316.787 493.539 316.432 494.339 315.724 494.912C315.016 495.485 314.112 495.771 313.013 495.771C312.195 495.771 311.438 495.544 310.74 495.091C310.042 494.633 309.693 493.958 309.693 493.068Z" fill="black"/>
<path d="M275.875 499.812C277.579 497.968 278.688 496.684 279.204 495.96C279.995 494.867 280.391 493.898 280.391 493.054C280.391 492.554 280.237 492.088 279.93 491.656C279.628 491.218 279.157 491 278.516 491C277.954 491 277.48 491.195 277.094 491.585C276.886 491.799 276.701 492.085 276.54 492.445H276.102C276.456 491.335 276.946 490.515 277.571 489.984C278.196 489.447 278.899 489.179 279.68 489.179C280.42 489.179 281.092 489.437 281.696 489.953C282.3 490.463 282.602 491.216 282.602 492.21C282.602 492.731 282.459 493.265 282.172 493.812C281.891 494.359 281.415 494.953 280.743 495.593L278.305 497.921V498.054H280.579C281.37 498.054 281.886 497.989 282.125 497.859C282.37 497.729 282.615 497.38 282.86 496.812H283.243L282.524 500.179H275.875V499.812ZM287.797 495.421C287.917 495.421 288.053 495.398 288.204 495.351C288.36 495.304 288.454 495.26 288.485 495.218C288.511 495.187 288.542 495 288.579 494.656C288.615 494.312 288.633 493.906 288.633 493.437C288.633 492.916 288.623 492.45 288.602 492.039C288.581 491.622 288.542 491.263 288.485 490.96C288.417 490.601 288.329 490.322 288.219 490.125C288.032 489.791 287.769 489.625 287.43 489.625C287.055 489.625 286.784 489.809 286.618 490.179C286.451 490.544 286.368 491.083 286.368 491.796C286.368 493 286.477 493.906 286.696 494.515C286.915 495.119 287.282 495.421 287.797 495.421ZM284.079 500C284.938 499.828 285.657 499.549 286.235 499.164C287.271 498.46 287.967 497.393 288.321 495.96L288.243 495.906C288.024 495.979 287.849 496.031 287.719 496.062C287.464 496.119 287.196 496.148 286.915 496.148C286.076 496.148 285.378 495.859 284.821 495.281C284.264 494.703 283.985 493.916 283.985 492.921C283.985 491.77 284.329 490.859 285.016 490.187C285.704 489.515 286.516 489.179 287.454 489.179C288.532 489.179 289.417 489.596 290.11 490.429C290.808 491.257 291.157 492.354 291.157 493.718C291.157 495.77 290.365 497.419 288.782 498.664C287.454 499.71 285.886 500.291 284.079 500.406V500Z" fill="black"/>
<path d="M251.766 499.892C252.25 499.892 252.748 500.155 253.258 500.681C253.774 501.201 254.198 501.462 254.532 501.462C255.105 501.462 255.514 501.269 255.758 500.884C256.008 500.493 256.133 500.05 256.133 499.556C256.133 498.644 255.75 497.899 254.985 497.321C254.547 496.998 253.855 496.668 252.907 496.329V496.071C253.553 495.847 254.014 495.631 254.29 495.423C254.764 495.063 255 494.576 255 493.962C255 493.431 254.839 493.027 254.516 492.751C254.198 492.47 253.792 492.329 253.297 492.329C252.839 492.329 252.425 492.496 252.055 492.829C251.847 493.017 251.625 493.295 251.391 493.665L251.055 493.478C251.305 492.946 251.662 492.472 252.125 492.056C252.865 491.389 253.73 491.056 254.719 491.056C255.402 491.056 255.995 491.248 256.5 491.634C257.006 492.019 257.284 492.522 257.336 493.142C257.336 493.584 257.237 493.98 257.04 494.329C256.847 494.673 256.532 494.957 256.094 495.181V495.298C256.735 495.553 257.204 495.938 257.5 496.454C257.797 496.965 257.946 497.504 257.946 498.071C257.946 499.217 257.503 500.194 256.618 501.001C255.696 501.85 254.529 502.274 253.118 502.274C252.43 502.274 251.857 502.144 251.399 501.884C250.941 501.623 250.711 501.28 250.711 500.853C250.711 500.623 250.792 500.407 250.954 500.204C251.12 499.996 251.391 499.892 251.766 499.892ZM261.352 498.478C261.362 499.78 261.459 500.66 261.641 501.118C261.823 501.571 262.099 501.798 262.469 501.798C262.933 501.798 263.245 501.376 263.407 500.532C263.495 500.069 263.54 499.384 263.54 498.478V494.813C263.54 493.517 263.446 492.642 263.258 492.188C263.076 491.73 262.808 491.501 262.454 491.501C262.094 491.501 261.821 491.733 261.633 492.196C261.446 492.655 261.352 493.527 261.352 494.813V498.478ZM258.836 496.72C258.836 494.808 259.264 493.329 260.118 492.282C260.795 491.449 261.571 491.032 262.446 491.032C263.456 491.032 264.308 491.545 265 492.571C265.704 493.623 266.055 494.946 266.055 496.54C266.055 498.42 265.657 499.884 264.86 500.931C264.188 501.811 263.386 502.251 262.454 502.251C261.797 502.251 261.237 502.058 260.774 501.673C260.31 501.287 259.915 500.79 259.586 500.181C259.305 499.665 259.107 499.074 258.993 498.407C258.925 498.017 258.873 497.454 258.836 496.72Z" fill="black"/>
<path d="M223.397 498.903C223.881 498.903 224.379 499.166 224.889 499.692C225.405 500.213 225.829 500.473 226.163 500.473C226.736 500.473 227.144 500.28 227.389 499.895C227.639 499.504 227.764 499.062 227.764 498.567C227.764 497.655 227.381 496.911 226.616 496.333C226.178 496.01 225.486 495.679 224.538 495.34V495.083C225.183 494.859 225.644 494.642 225.92 494.434C226.394 494.075 226.631 493.588 226.631 492.973C226.631 492.442 226.47 492.038 226.147 491.762C225.829 491.481 225.423 491.34 224.928 491.34C224.47 491.34 224.056 491.507 223.686 491.84C223.478 492.028 223.256 492.306 223.022 492.676L222.686 492.489C222.936 491.958 223.293 491.484 223.756 491.067C224.496 490.4 225.361 490.067 226.35 490.067C227.032 490.067 227.626 490.26 228.131 490.645C228.637 491.03 228.915 491.533 228.967 492.153C228.967 492.596 228.868 492.991 228.67 493.34C228.478 493.684 228.163 493.968 227.725 494.192V494.309C228.366 494.564 228.834 494.95 229.131 495.465C229.428 495.976 229.577 496.515 229.577 497.083C229.577 498.228 229.134 499.205 228.249 500.012C227.327 500.861 226.16 501.286 224.749 501.286C224.061 501.286 223.488 501.155 223.03 500.895C222.571 500.635 222.342 500.291 222.342 499.864C222.342 499.635 222.423 499.418 222.584 499.215C222.751 499.007 223.022 498.903 223.397 498.903ZM231.17 500.661C231.983 500.661 232.504 500.551 232.733 500.333C232.962 500.109 233.077 499.687 233.077 499.067V492.903C233.077 492.507 233.03 492.226 232.936 492.059C232.847 491.892 232.681 491.809 232.436 491.809C232.306 491.809 232.105 491.853 231.834 491.942C231.663 491.994 231.428 492.077 231.131 492.192V491.786L235.17 490.043H235.452V499.161C235.452 499.744 235.545 500.14 235.733 500.348C235.92 500.556 236.4 500.661 237.17 500.661V501.043H231.17V500.661Z" fill="black"/>
<path d="M199.135 495.425C199.62 495.425 200.117 495.688 200.627 496.214C201.143 496.735 201.568 496.996 201.901 496.996C202.474 496.996 202.883 496.803 203.127 496.417C203.377 496.027 203.502 495.584 203.502 495.089C203.502 494.178 203.12 493.433 202.354 492.855C201.917 492.532 201.224 492.201 200.276 491.863V491.605C200.922 491.381 201.383 491.165 201.659 490.957C202.133 490.597 202.37 490.11 202.37 489.496C202.37 488.964 202.208 488.561 201.885 488.285C201.568 488.003 201.161 487.863 200.667 487.863C200.208 487.863 199.794 488.029 199.424 488.363C199.216 488.55 198.995 488.829 198.76 489.199L198.424 489.011C198.674 488.48 199.031 488.006 199.495 487.589C200.234 486.923 201.099 486.589 202.088 486.589C202.771 486.589 203.364 486.782 203.87 487.167C204.375 487.553 204.653 488.056 204.706 488.675C204.706 489.118 204.607 489.514 204.409 489.863C204.216 490.207 203.901 490.49 203.463 490.714V490.832C204.104 491.087 204.573 491.472 204.87 491.988C205.167 492.498 205.315 493.037 205.315 493.605C205.315 494.751 204.872 495.727 203.987 496.535C203.065 497.384 201.898 497.808 200.487 497.808C199.799 497.808 199.226 497.678 198.768 497.417C198.31 497.157 198.081 496.813 198.081 496.386C198.081 496.157 198.161 495.941 198.323 495.738C198.489 495.529 198.76 495.425 199.135 495.425ZM206.112 497.199C207.815 495.355 208.924 494.071 209.44 493.347C210.232 492.253 210.627 491.285 210.627 490.441C210.627 489.941 210.474 489.475 210.167 489.042C209.864 488.605 209.393 488.386 208.752 488.386C208.19 488.386 207.716 488.582 207.331 488.972C207.122 489.186 206.937 489.472 206.776 489.832H206.338C206.693 488.722 207.182 487.902 207.807 487.371C208.432 486.834 209.135 486.566 209.917 486.566C210.656 486.566 211.328 486.824 211.932 487.339C212.536 487.85 212.838 488.602 212.838 489.597C212.838 490.118 212.695 490.652 212.409 491.199C212.127 491.746 211.651 492.339 210.979 492.98L208.542 495.308V495.441H210.815C211.607 495.441 212.122 495.376 212.362 495.246C212.607 495.115 212.851 494.766 213.096 494.199H213.479L212.76 497.566H206.112V497.199Z" fill="black"/>
<path d="M172.599 488.667C173.083 488.667 173.581 488.93 174.091 489.456C174.607 489.977 175.031 490.237 175.365 490.237C175.938 490.237 176.347 490.045 176.591 489.659C176.841 489.269 176.966 488.826 176.966 488.331C176.966 487.42 176.583 486.675 175.818 486.097C175.38 485.774 174.688 485.443 173.74 485.104V484.847C174.386 484.623 174.847 484.407 175.123 484.198C175.597 483.839 175.833 483.352 175.833 482.737C175.833 482.206 175.672 481.802 175.349 481.526C175.031 481.245 174.625 481.104 174.13 481.104C173.672 481.104 173.258 481.271 172.888 481.604C172.68 481.792 172.458 482.071 172.224 482.44L171.888 482.253C172.138 481.722 172.495 481.248 172.958 480.831C173.698 480.164 174.563 479.831 175.552 479.831C176.235 479.831 176.828 480.024 177.333 480.409C177.839 480.795 178.117 481.297 178.169 481.917C178.169 482.36 178.07 482.756 177.873 483.104C177.68 483.448 177.365 483.732 176.927 483.956V484.073C177.568 484.328 178.037 484.714 178.333 485.229C178.63 485.74 178.779 486.279 178.779 486.847C178.779 487.993 178.336 488.969 177.451 489.776C176.529 490.625 175.362 491.05 173.951 491.05C173.263 491.05 172.69 490.92 172.232 490.659C171.774 490.399 171.544 490.055 171.544 489.628C171.544 489.399 171.625 489.183 171.787 488.979C171.953 488.771 172.224 488.667 172.599 488.667ZM180.599 488.667C181.083 488.667 181.581 488.93 182.091 489.456C182.607 489.977 183.031 490.237 183.365 490.237C183.938 490.237 184.347 490.045 184.591 489.659C184.841 489.269 184.966 488.826 184.966 488.331C184.966 487.42 184.583 486.675 183.818 486.097C183.38 485.774 182.688 485.443 181.74 485.104V484.847C182.386 484.623 182.847 484.407 183.123 484.198C183.597 483.839 183.833 483.352 183.833 482.737C183.833 482.206 183.672 481.802 183.349 481.526C183.031 481.245 182.625 481.104 182.13 481.104C181.672 481.104 181.258 481.271 180.888 481.604C180.68 481.792 180.458 482.071 180.224 482.44L179.888 482.253C180.138 481.722 180.495 481.248 180.958 480.831C181.698 480.164 182.563 479.831 183.552 479.831C184.235 479.831 184.828 480.024 185.333 480.409C185.839 480.795 186.117 481.297 186.169 481.917C186.169 482.36 186.07 482.756 185.873 483.104C185.68 483.448 185.365 483.732 184.927 483.956V484.073C185.568 484.328 186.037 484.714 186.333 485.229C186.63 485.74 186.779 486.279 186.779 486.847C186.779 487.993 186.336 488.969 185.451 489.776C184.529 490.625 183.362 491.05 181.951 491.05C181.263 491.05 180.69 490.92 180.232 490.659C179.774 490.399 179.544 490.055 179.544 489.628C179.544 489.399 179.625 489.183 179.787 488.979C179.953 488.771 180.224 488.667 180.599 488.667Z" fill="black"/>
<path d="M149.252 479.953C149.737 479.953 150.234 480.216 150.745 480.742C151.26 481.263 151.685 481.523 152.018 481.523C152.591 481.523 153 481.331 153.245 480.945C153.495 480.555 153.62 480.112 153.62 479.617C153.62 478.706 153.237 477.961 152.471 477.383C152.034 477.06 151.341 476.729 150.393 476.391V476.133C151.039 475.909 151.5 475.693 151.776 475.484C152.25 475.125 152.487 474.638 152.487 474.023C152.487 473.492 152.325 473.089 152.002 472.812C151.685 472.531 151.278 472.391 150.784 472.391C150.325 472.391 149.911 472.557 149.542 472.891C149.333 473.078 149.112 473.357 148.877 473.727L148.542 473.539C148.792 473.008 149.148 472.534 149.612 472.117C150.351 471.451 151.216 471.117 152.206 471.117C152.888 471.117 153.482 471.31 153.987 471.695C154.492 472.081 154.771 472.583 154.823 473.203C154.823 473.646 154.724 474.042 154.526 474.391C154.333 474.734 154.018 475.018 153.581 475.242V475.359C154.221 475.615 154.69 476 154.987 476.516C155.284 477.026 155.432 477.565 155.432 478.133C155.432 479.279 154.989 480.255 154.104 481.062C153.182 481.911 152.015 482.336 150.604 482.336C149.917 482.336 149.344 482.206 148.885 481.945C148.427 481.685 148.198 481.341 148.198 480.914C148.198 480.685 148.278 480.469 148.44 480.266C148.607 480.057 148.877 479.953 149.252 479.953ZM160.245 478.023V473.469H160.135L157.01 477.875V478.023H160.245ZM156.245 477.984C156.286 477.896 156.331 477.818 156.377 477.75C156.424 477.677 156.568 477.471 156.807 477.133L158.471 474.766L160.62 471.93L161.268 471.094H162.542V478.023H163.542V479.805H162.542V482.094H160.229V479.805H156.245V477.984Z" fill="black"/>
<path d="M125.735 468.218C126.219 468.218 126.717 468.481 127.227 469.007C127.743 469.528 128.167 469.789 128.5 469.789C129.073 469.789 129.482 469.596 129.727 469.21C129.977 468.82 130.102 468.377 130.102 467.882C130.102 466.971 129.719 466.226 128.954 465.648C128.516 465.325 127.823 464.994 126.875 464.656V464.398C127.521 464.174 127.982 463.958 128.258 463.75C128.732 463.39 128.969 462.903 128.969 462.289C128.969 461.757 128.808 461.354 128.485 461.078C128.167 460.796 127.761 460.656 127.266 460.656C126.808 460.656 126.394 460.822 126.024 461.156C125.816 461.343 125.594 461.622 125.36 461.992L125.024 461.804C125.274 461.273 125.631 460.799 126.094 460.382C126.834 459.716 127.698 459.382 128.688 459.382C129.37 459.382 129.964 459.575 130.469 459.96C130.974 460.346 131.253 460.848 131.305 461.468C131.305 461.911 131.206 462.307 131.008 462.656C130.816 463 130.5 463.283 130.063 463.507V463.625C130.704 463.88 131.172 464.265 131.469 464.781C131.766 465.291 131.915 465.83 131.915 466.398C131.915 467.544 131.472 468.52 130.586 469.328C129.665 470.177 128.498 470.601 127.086 470.601C126.399 470.601 125.826 470.471 125.368 470.21C124.909 469.95 124.68 469.606 124.68 469.179C124.68 468.95 124.761 468.734 124.922 468.531C125.089 468.322 125.36 468.218 125.735 468.218ZM132.79 469.085C132.79 468.815 132.878 468.585 133.055 468.398C133.232 468.21 133.472 468.117 133.774 468.117C134.159 468.117 134.678 468.351 135.329 468.82C135.98 469.283 136.485 469.515 136.844 469.515C137.266 469.515 137.631 469.367 137.938 469.07C138.245 468.773 138.399 468.372 138.399 467.867C138.399 467.351 138.224 466.914 137.875 466.554C137.527 466.195 137.133 465.916 136.696 465.718C136.227 465.505 135.696 465.348 135.102 465.25C134.717 465.187 134.099 465.127 133.25 465.07L134.805 459.546H139.954L139.266 461.585H134.821L134.469 462.882C135.709 462.919 136.714 463.098 137.485 463.421C138.933 464.026 139.657 465.098 139.657 466.64C139.657 467.765 139.224 468.692 138.36 469.421C137.495 470.145 136.409 470.507 135.102 470.507C134.441 470.507 133.889 470.377 133.446 470.117C133.008 469.856 132.79 469.513 132.79 469.085Z" fill="black"/>
<path d="M103.862 454.196C104.347 454.196 104.844 454.459 105.354 454.985C105.87 455.506 106.295 455.767 106.628 455.767C107.201 455.767 107.61 455.574 107.854 455.188C108.104 454.798 108.229 454.355 108.229 453.86C108.229 452.949 107.847 452.204 107.081 451.626C106.644 451.303 105.951 450.972 105.003 450.634V450.376C105.649 450.152 106.11 449.936 106.386 449.728C106.86 449.368 107.097 448.881 107.097 448.267C107.097 447.735 106.935 447.332 106.612 447.056C106.295 446.774 105.888 446.634 105.394 446.634C104.935 446.634 104.521 446.8 104.151 447.134C103.943 447.321 103.722 447.6 103.487 447.97L103.151 447.782C103.401 447.251 103.758 446.777 104.222 446.36C104.961 445.694 105.826 445.36 106.815 445.36C107.498 445.36 108.091 445.553 108.597 445.938C109.102 446.324 109.381 446.826 109.433 447.446C109.433 447.889 109.334 448.285 109.136 448.634C108.943 448.978 108.628 449.261 108.19 449.485V449.603C108.831 449.858 109.3 450.243 109.597 450.759C109.894 451.269 110.042 451.808 110.042 452.376C110.042 453.522 109.599 454.498 108.714 455.306C107.792 456.155 106.625 456.579 105.214 456.579C104.526 456.579 103.953 456.449 103.495 456.188C103.037 455.928 102.808 455.584 102.808 455.157C102.808 454.928 102.888 454.712 103.05 454.509C103.216 454.3 103.487 454.196 103.862 454.196ZM114.347 450.321C114.045 450.321 113.852 450.368 113.769 450.462C113.685 450.556 113.628 450.712 113.597 450.931C113.581 451.061 113.565 451.248 113.55 451.493C113.534 451.733 113.526 451.993 113.526 452.274C113.526 452.826 113.537 453.308 113.558 453.72C113.578 454.126 113.618 454.48 113.675 454.782C113.743 455.157 113.852 455.475 114.003 455.735C114.159 455.991 114.399 456.118 114.722 456.118C115.175 456.118 115.469 455.892 115.604 455.438C115.688 455.157 115.729 454.587 115.729 453.728C115.729 452.431 115.62 451.54 115.401 451.056C115.183 450.566 114.831 450.321 114.347 450.321ZM118.081 445.751C116.951 445.949 116.029 446.397 115.315 447.095C114.607 447.793 114.115 448.688 113.839 449.782L113.917 449.837C114.104 449.774 114.266 449.728 114.401 449.696C114.667 449.634 114.94 449.603 115.222 449.603C116.008 449.603 116.693 449.866 117.276 450.392C117.86 450.918 118.151 451.725 118.151 452.813C118.151 454.032 117.8 454.962 117.097 455.603C116.394 456.243 115.586 456.563 114.675 456.563C113.659 456.563 112.792 456.162 112.073 455.36C111.36 454.553 111.003 453.441 111.003 452.024C111.003 450.082 111.722 448.493 113.159 447.259C114.466 446.139 116.107 445.498 118.081 445.337V445.751Z" fill="black"/>
<path d="M83.7256 438.05C84.21 438.05 84.7074 438.313 85.2178 438.839C85.7334 439.36 86.1579 439.62 86.4912 439.62C87.0641 439.62 87.473 439.427 87.7178 439.042C87.9678 438.651 88.0928 438.209 88.0928 437.714C88.0928 436.802 87.71 436.058 86.9443 435.479C86.5068 435.157 85.8141 434.826 84.8662 434.487V434.229C85.512 434.006 85.973 433.789 86.249 433.581C86.723 433.222 86.96 432.735 86.96 432.12C86.96 431.589 86.7985 431.185 86.4756 430.909C86.1579 430.628 85.7516 430.487 85.2568 430.487C84.7985 430.487 84.3844 430.654 84.0146 430.987C83.8063 431.175 83.585 431.453 83.3506 431.823L83.0146 431.636C83.2646 431.104 83.6214 430.631 84.085 430.214C84.8245 429.547 85.6891 429.214 86.6787 429.214C87.361 429.214 87.9548 429.407 88.46 429.792C88.9652 430.177 89.2438 430.68 89.2959 431.3C89.2959 431.743 89.1969 432.138 88.999 432.487C88.8063 432.831 88.4912 433.115 88.0537 433.339V433.456C88.6943 433.711 89.1631 434.097 89.46 434.612C89.7568 435.123 89.9053 435.662 89.9053 436.229C89.9053 437.375 89.4626 438.352 88.5771 439.159C87.6553 440.008 86.4886 440.433 85.0771 440.433C84.3896 440.433 83.8167 440.302 83.3584 440.042C82.9001 439.782 82.6709 439.438 82.6709 439.011C82.6709 438.782 82.7516 438.565 82.9131 438.362C83.0798 438.154 83.3506 438.05 83.7256 438.05ZM91.4053 429.378H98.0537L94.2959 440.19H92.7803L95.9053 431.69C95.9001 431.628 95.887 431.586 95.8662 431.565H92.8115C92.3115 431.565 91.9443 431.646 91.71 431.808C91.4808 431.969 91.2751 432.344 91.0928 432.933H90.7021L91.4053 429.378Z" fill="black"/>
<path d="M65.4331 419.919C65.9175 419.919 66.4149 420.182 66.9253 420.708C67.4409 421.229 67.8654 421.489 68.1987 421.489C68.7716 421.489 69.1805 421.297 69.4253 420.911C69.6753 420.521 69.8003 420.078 69.8003 419.583C69.8003 418.672 69.4175 417.927 68.6519 417.349C68.2144 417.026 67.5216 416.695 66.5737 416.356V416.099C67.2196 415.875 67.6805 415.659 67.9565 415.45C68.4305 415.091 68.6675 414.604 68.6675 413.989C68.6675 413.458 68.506 413.054 68.1831 412.778C67.8654 412.497 67.4591 412.356 66.9644 412.356C66.506 412.356 66.092 412.523 65.7222 412.856C65.5138 413.044 65.2925 413.323 65.0581 413.692L64.7222 413.505C64.9722 412.974 65.3289 412.5 65.7925 412.083C66.5321 411.416 67.3966 411.083 68.3862 411.083C69.0685 411.083 69.6623 411.276 70.1675 411.661C70.6727 412.047 70.9513 412.549 71.0034 413.169C71.0034 413.612 70.9045 414.007 70.7065 414.356C70.5138 414.7 70.1987 414.984 69.7612 415.208V415.325C70.4019 415.58 70.8706 415.966 71.1675 416.481C71.4644 416.992 71.6128 417.531 71.6128 418.099C71.6128 419.244 71.1701 420.221 70.2847 421.028C69.3628 421.877 68.1961 422.302 66.7847 422.302C66.0972 422.302 65.5243 422.172 65.0659 421.911C64.6076 421.651 64.3784 421.307 64.3784 420.88C64.3784 420.651 64.4591 420.435 64.6206 420.231C64.7873 420.023 65.0581 419.919 65.4331 419.919ZM76.855 415.302C77.0894 414.984 77.243 414.737 77.3159 414.56C77.4409 414.273 77.5034 413.924 77.5034 413.513C77.5034 412.935 77.3966 412.461 77.1831 412.091C76.9696 411.716 76.5998 411.528 76.0737 411.528C75.6935 411.528 75.3836 411.653 75.144 411.903C74.9045 412.153 74.7847 412.466 74.7847 412.841C74.7847 413.435 75.0841 413.997 75.6831 414.528C76.0321 414.841 76.4227 415.099 76.855 415.302ZM74.4644 419.544C74.4644 419.992 74.5347 420.396 74.6753 420.755C74.9305 421.427 75.3836 421.763 76.0347 421.763C76.4045 421.763 76.7248 421.625 76.9956 421.349C77.2716 421.073 77.4097 420.609 77.4097 419.958C77.4097 419.328 77.2039 418.786 76.7925 418.333C76.5373 418.052 76.0321 417.666 75.2769 417.177C74.9748 417.64 74.7769 417.994 74.6831 418.239C74.5373 418.609 74.4644 419.044 74.4644 419.544ZM72.5425 419.583C72.5425 418.765 72.8341 418.119 73.4175 417.646C73.7352 417.38 74.1961 417.148 74.8003 416.95V416.802C74.6753 416.771 74.4279 416.604 74.0581 416.302C73.6883 415.994 73.4149 415.716 73.2378 415.466C73.0243 415.169 72.881 414.896 72.8081 414.646C72.7404 414.39 72.7065 414.125 72.7065 413.849C72.7065 413.073 73.0399 412.414 73.7065 411.872C74.3732 411.33 75.2456 411.06 76.3237 411.06C77.3237 411.06 78.0894 411.286 78.6206 411.739C79.1571 412.187 79.4253 412.718 79.4253 413.333C79.4253 413.963 79.1519 414.489 78.605 414.911C78.3029 415.146 77.8862 415.356 77.355 415.544V415.653C78.1154 416.2 78.6362 416.646 78.9175 416.989C79.3966 417.573 79.6362 418.252 79.6362 419.028C79.6362 420.054 79.2821 420.854 78.5737 421.427C77.8654 422 76.9618 422.286 75.8628 422.286C75.0451 422.286 74.2873 422.06 73.5894 421.606C72.8914 421.148 72.5425 420.474 72.5425 419.583Z" fill="black"/>
<path d="M49.1094 399.93C49.5938 399.93 50.0911 400.193 50.6016 400.719C51.1172 401.24 51.5417 401.5 51.875 401.5C52.4479 401.5 52.8568 401.308 53.1016 400.922C53.3516 400.532 53.4766 400.089 53.4766 399.594C53.4766 398.683 53.0938 397.938 52.3281 397.36C51.8906 397.037 51.1979 396.706 50.25 396.368V396.11C50.8958 395.886 51.3568 395.67 51.6328 395.461C52.1068 395.102 52.3438 394.615 52.3438 394C52.3438 393.469 52.1823 393.066 51.8594 392.79C51.5417 392.508 51.1354 392.368 50.6406 392.368C50.1823 392.368 49.7682 392.534 49.3984 392.868C49.1901 393.055 48.9688 393.334 48.7344 393.704L48.3984 393.516C48.6484 392.985 49.0052 392.511 49.4688 392.094C50.2083 391.428 51.0729 391.094 52.0625 391.094C52.7448 391.094 53.3385 391.287 53.8438 391.672C54.349 392.058 54.6276 392.56 54.6797 393.18C54.6797 393.623 54.5807 394.019 54.3828 394.368C54.1901 394.711 53.875 394.995 53.4375 395.219V395.336C54.0781 395.592 54.5469 395.977 54.8438 396.493C55.1406 397.003 55.2891 397.542 55.2891 398.11C55.2891 399.256 54.8464 400.232 53.9609 401.04C53.0391 401.889 51.8724 402.313 50.4609 402.313C49.7734 402.313 49.2005 402.183 48.7422 401.922C48.2839 401.662 48.0547 401.318 48.0547 400.891C48.0547 400.662 48.1354 400.446 48.2969 400.243C48.4635 400.034 48.7344 399.93 49.1094 399.93ZM60.0078 397.313C60.1276 397.313 60.263 397.29 60.4141 397.243C60.5703 397.196 60.6641 397.152 60.6953 397.11C60.7214 397.079 60.7526 396.891 60.7891 396.547C60.8255 396.204 60.8438 395.797 60.8438 395.329C60.8438 394.808 60.8333 394.342 60.8125 393.93C60.7917 393.514 60.7526 393.154 60.6953 392.852C60.6276 392.493 60.5391 392.214 60.4297 392.016C60.2422 391.683 59.9792 391.516 59.6406 391.516C59.2656 391.516 58.9948 391.701 58.8281 392.071C58.6615 392.435 58.5781 392.974 58.5781 393.688C58.5781 394.891 58.6875 395.797 58.9062 396.407C59.125 397.011 59.4922 397.313 60.0078 397.313ZM56.2891 401.891C57.1484 401.719 57.8672 401.441 58.4453 401.055C59.4818 400.352 60.1771 399.284 60.5312 397.852L60.4531 397.797C60.2344 397.87 60.0599 397.922 59.9297 397.954C59.6745 398.011 59.4062 398.04 59.125 398.04C58.2865 398.04 57.5885 397.75 57.0312 397.172C56.474 396.594 56.1953 395.808 56.1953 394.813C56.1953 393.662 56.5391 392.75 57.2266 392.079C57.9141 391.407 58.7266 391.071 59.6641 391.071C60.7422 391.071 61.6276 391.487 62.3203 392.321C63.0182 393.149 63.3672 394.245 63.3672 395.61C63.3672 397.662 62.5755 399.31 60.9922 400.555C59.6641 401.602 58.0964 402.183 56.2891 402.297V401.891Z" fill="black"/>
<path d="M37.8896 376.261V371.706H37.7803L34.6553 376.112V376.261H37.8896ZM33.8896 376.222C33.9313 376.133 33.9756 376.055 34.0225 375.987C34.0693 375.914 34.2126 375.709 34.4521 375.37L36.1162 373.003L38.2646 370.167L38.9131 369.331H40.1865V376.261H41.1865V378.042H40.1865V380.331H37.874V378.042H33.8896V376.222ZM44.4834 376.776C44.4938 378.078 44.5902 378.959 44.7725 379.417C44.9548 379.87 45.2308 380.097 45.6006 380.097C46.0641 380.097 46.3766 379.675 46.5381 378.831C46.6266 378.368 46.6709 377.683 46.6709 376.776V373.112C46.6709 371.815 46.5771 370.94 46.3896 370.487C46.2074 370.029 45.9391 369.8 45.585 369.8C45.2256 369.8 44.9521 370.032 44.7646 370.495C44.5771 370.953 44.4834 371.826 44.4834 373.112V376.776ZM41.9678 375.019C41.9678 373.107 42.3949 371.628 43.249 370.581C43.9261 369.748 44.7021 369.331 45.5771 369.331C46.5876 369.331 47.4391 369.844 48.1318 370.87C48.835 371.922 49.1865 373.245 49.1865 374.839C49.1865 376.719 48.7881 378.183 47.9912 379.229C47.3193 380.11 46.5173 380.55 45.585 380.55C44.9287 380.55 44.3688 380.357 43.9053 379.972C43.4417 379.586 43.0459 379.089 42.7178 378.479C42.4365 377.964 42.2386 377.373 42.124 376.706C42.0563 376.315 42.0042 375.753 41.9678 375.019Z" fill="black"/>
<path d="M25.9497 352.86V348.306H25.8403L22.7153 352.712V352.86H25.9497ZM21.9497 352.821C21.9914 352.733 22.0356 352.655 22.0825 352.587C22.1294 352.514 22.2726 352.308 22.5122 351.97L24.1763 349.603L26.3247 346.767L26.9731 345.931H28.2466V352.86H29.2466V354.642H28.2466V356.931H25.9341V354.642H21.9497V352.821ZM30.731 356.548C31.5435 356.548 32.0643 356.438 32.2935 356.22C32.5226 355.996 32.6372 355.574 32.6372 354.954V348.79C32.6372 348.394 32.5903 348.113 32.4966 347.946C32.408 347.78 32.2414 347.696 31.9966 347.696C31.8664 347.696 31.6659 347.741 31.395 347.829C31.2231 347.881 30.9888 347.965 30.6919 348.079V347.673L34.731 345.931H35.0122V355.048C35.0122 355.631 35.106 356.027 35.2935 356.235C35.481 356.444 35.9601 356.548 36.731 356.548V356.931H30.731V356.548Z" fill="black"/>
<path d="M16.4697 327.871V323.316H16.3604L13.2354 327.722V327.871H16.4697ZM12.4697 327.832C12.5114 327.743 12.5557 327.665 12.6025 327.597C12.6494 327.524 12.7926 327.319 13.0322 326.98L14.6963 324.613L16.8447 321.777L17.4932 320.941H18.7666V327.871H19.7666V329.652H18.7666V331.941H16.4541V329.652H12.4697V327.832ZM20.4541 331.574C22.1572 329.73 23.2666 328.446 23.7822 327.722C24.5739 326.628 24.9697 325.66 24.9697 324.816C24.9697 324.316 24.8161 323.85 24.5088 323.417C24.2067 322.98 23.7354 322.761 23.0947 322.761C22.5322 322.761 22.0583 322.957 21.6729 323.347C21.4645 323.561 21.2796 323.847 21.1182 324.207H20.6807C21.0348 323.097 21.5244 322.277 22.1494 321.746C22.7744 321.209 23.4775 320.941 24.2588 320.941C24.9984 320.941 25.6702 321.199 26.2744 321.714C26.8786 322.225 27.1807 322.977 27.1807 323.972C27.1807 324.493 27.0374 325.027 26.751 325.574C26.4697 326.121 25.9932 326.714 25.3213 327.355L22.8838 329.683V329.816H25.1572C25.9489 329.816 26.4645 329.751 26.7041 329.621C26.9489 329.49 27.1937 329.141 27.4385 328.574H27.8213L27.1025 331.941H20.4541V331.574Z" fill="black"/>
<path d="M10.0356 303.164V298.609H9.92627L6.80127 303.016V303.164H10.0356ZM6.03564 303.125C6.07731 303.036 6.12158 302.958 6.16846 302.891C6.21533 302.818 6.35856 302.612 6.59814 302.273L8.26221 299.906L10.4106 297.07L11.0591 296.234H12.3325V303.164H13.3325V304.945H12.3325V307.234H10.02V304.945H6.03564V303.125ZM15.0435 305.094C15.5278 305.094 16.0252 305.357 16.5356 305.883C17.0513 306.404 17.4757 306.664 17.8091 306.664C18.382 306.664 18.7909 306.471 19.0356 306.086C19.2856 305.695 19.4106 305.253 19.4106 304.758C19.4106 303.846 19.0278 303.102 18.2622 302.523C17.8247 302.201 17.132 301.87 16.1841 301.531V301.273C16.8299 301.049 17.2909 300.833 17.5669 300.625C18.0409 300.266 18.2778 299.779 18.2778 299.164C18.2778 298.633 18.1164 298.229 17.7935 297.953C17.4757 297.672 17.0695 297.531 16.5747 297.531C16.1164 297.531 15.7023 297.698 15.3325 298.031C15.1242 298.219 14.9028 298.497 14.6685 298.867L14.3325 298.68C14.5825 298.148 14.9393 297.674 15.4028 297.258C16.1424 296.591 17.007 296.258 17.9966 296.258C18.6789 296.258 19.2726 296.451 19.7778 296.836C20.283 297.221 20.5617 297.724 20.6138 298.344C20.6138 298.786 20.5148 299.182 20.3169 299.531C20.1242 299.875 19.8091 300.159 19.3716 300.383V300.5C20.0122 300.755 20.481 301.141 20.7778 301.656C21.0747 302.167 21.2231 302.706 21.2231 303.273C21.2231 304.419 20.7804 305.396 19.895 306.203C18.9731 307.052 17.8065 307.477 16.395 307.477C15.7075 307.477 15.1346 307.346 14.6763 307.086C14.2179 306.826 13.9888 306.482 13.9888 306.055C13.9888 305.826 14.0695 305.609 14.231 305.406C14.3976 305.198 14.6685 305.094 15.0435 305.094Z" fill="black"/>
<path d="M6.15186 277.089V272.535H6.04248L2.91748 276.941V277.089H6.15186ZM2.15186 277.05C2.19352 276.962 2.23779 276.884 2.28467 276.816C2.33154 276.743 2.47477 276.537 2.71436 276.199L4.37842 273.832L6.52686 270.996L7.17529 270.16H8.44873V277.089H9.44873V278.871H8.44873V281.16H6.13623V278.871H2.15186V277.05ZM14.1519 277.089V272.535H14.0425L10.9175 276.941V277.089H14.1519ZM10.1519 277.05C10.1935 276.962 10.2378 276.884 10.2847 276.816C10.3315 276.743 10.4748 276.537 10.7144 276.199L12.3784 273.832L14.5269 270.996L15.1753 270.16H16.4487V277.089H17.4487V278.871H16.4487V281.16H14.1362V278.871H10.1519V277.05Z" fill="black"/>
<path d="M5.0874 250.64V246.085H4.97803L1.85303 250.491V250.64H5.0874ZM1.0874 250.601C1.12907 250.512 1.17334 250.434 1.22021 250.366C1.26709 250.293 1.41032 250.088 1.6499 249.749L3.31396 247.382L5.4624 244.546L6.11084 243.71H7.38428V250.64H8.38428V252.421H7.38428V254.71H5.07178V252.421H1.0874V250.601ZM9.1499 253.437C9.1499 253.166 9.23844 252.937 9.41553 252.749C9.59261 252.562 9.83219 252.468 10.1343 252.468C10.5197 252.468 11.0379 252.702 11.689 253.171C12.34 253.634 12.8452 253.866 13.2046 253.866C13.6265 253.866 13.991 253.718 14.2983 253.421C14.6056 253.124 14.7593 252.723 14.7593 252.218C14.7593 251.702 14.5848 251.265 14.2358 250.905C13.8869 250.546 13.4937 250.267 13.0562 250.069C12.5874 249.856 12.0562 249.7 11.4624 249.601C11.077 249.538 10.4598 249.478 9.61084 249.421L11.1655 243.897H16.314L15.6265 245.937H11.1812L10.8296 247.233C12.0692 247.27 13.0744 247.45 13.8452 247.772C15.2931 248.377 16.0171 249.45 16.0171 250.991C16.0171 252.116 15.5848 253.043 14.7202 253.772C13.8556 254.496 12.7697 254.858 11.4624 254.858C10.8009 254.858 10.2489 254.728 9.80615 254.468C9.36865 254.207 9.1499 253.864 9.1499 253.437Z" fill="black"/>
<path d="M6.93311 223.586V219.032H6.82373L3.69873 223.438V223.586H6.93311ZM2.93311 223.547C2.97477 223.459 3.01904 223.381 3.06592 223.313C3.11279 223.24 3.25602 223.034 3.49561 222.696L5.15967 220.329L7.30811 217.493L7.95654 216.657H9.22998V223.586H10.23V225.368H9.22998V227.657H6.91748V225.368H2.93311V223.547ZM14.4253 221.641C14.1232 221.641 13.9305 221.688 13.8472 221.782C13.7638 221.875 13.7065 222.032 13.6753 222.25C13.6597 222.381 13.644 222.568 13.6284 222.813C13.6128 223.053 13.605 223.313 13.605 223.594C13.605 224.146 13.6154 224.628 13.6362 225.04C13.6571 225.446 13.6961 225.8 13.7534 226.102C13.8211 226.477 13.9305 226.795 14.0815 227.055C14.2378 227.31 14.4774 227.438 14.8003 227.438C15.2534 227.438 15.5477 227.211 15.6831 226.758C15.7664 226.477 15.8081 225.907 15.8081 225.047C15.8081 223.75 15.6987 222.86 15.48 222.375C15.2612 221.886 14.9097 221.641 14.4253 221.641ZM18.1597 217.071C17.0295 217.269 16.1076 217.717 15.394 218.415C14.6857 219.112 14.1935 220.008 13.9175 221.102L13.9956 221.157C14.1831 221.094 14.3446 221.047 14.48 221.016C14.7456 220.954 15.019 220.922 15.3003 220.922C16.0868 220.922 16.7716 221.185 17.355 221.711C17.9383 222.237 18.23 223.045 18.23 224.133C18.23 225.352 17.8784 226.282 17.1753 226.922C16.4722 227.563 15.6649 227.883 14.7534 227.883C13.7378 227.883 12.8706 227.482 12.1519 226.68C11.4383 225.873 11.0815 224.761 11.0815 223.344C11.0815 221.402 11.8003 219.813 13.2378 218.579C14.5451 217.459 16.1857 216.818 18.1597 216.657V217.071Z" fill="black"/>
<path d="M11.1084 199.693V195.138H10.999L7.87402 199.544V199.693H11.1084ZM7.1084 199.654C7.15007 199.565 7.19434 199.487 7.24121 199.419C7.28809 199.347 7.43132 199.141 7.6709 198.802L9.33496 196.435L11.4834 193.599L12.1318 192.763H13.4053V199.693H14.4053V201.474H13.4053V203.763H11.0928V201.474H7.1084V199.654ZM15.7959 192.951H22.4443L18.6865 203.763H17.1709L20.2959 195.263C20.2907 195.201 20.2777 195.159 20.2568 195.138H17.2021C16.7021 195.138 16.335 195.219 16.1006 195.38C15.8714 195.542 15.6657 195.917 15.4834 196.505H15.0928L15.7959 192.951Z" fill="black"/>
<path d="M18.6001 173.566V169.011H18.4907L15.3657 173.417V173.566H18.6001ZM14.6001 173.527C14.6418 173.438 14.686 173.36 14.7329 173.292C14.7798 173.22 14.923 173.014 15.1626 172.675L16.8267 170.308L18.9751 167.472L19.6235 166.636H20.897V173.566H21.897V175.347H20.897V177.636H18.5845V175.347H14.6001V173.527ZM27.0298 170.878C27.2642 170.561 27.4178 170.313 27.4907 170.136C27.6157 169.85 27.6782 169.501 27.6782 169.089C27.6782 168.511 27.5715 168.037 27.3579 167.667C27.1444 167.292 26.7746 167.105 26.2485 167.105C25.8683 167.105 25.5584 167.23 25.3188 167.48C25.0793 167.73 24.9595 168.042 24.9595 168.417C24.9595 169.011 25.259 169.574 25.8579 170.105C26.2069 170.417 26.5975 170.675 27.0298 170.878ZM24.6392 175.121C24.6392 175.569 24.7095 175.972 24.8501 176.332C25.1053 177.003 25.5584 177.339 26.2095 177.339C26.5793 177.339 26.8996 177.201 27.1704 176.925C27.4465 176.649 27.5845 176.186 27.5845 175.535C27.5845 174.904 27.3787 174.363 26.9673 173.91C26.7121 173.628 26.2069 173.243 25.4517 172.753C25.1496 173.217 24.9517 173.571 24.8579 173.816C24.7121 174.186 24.6392 174.621 24.6392 175.121ZM22.7173 175.16C22.7173 174.342 23.009 173.696 23.5923 173.222C23.91 172.957 24.3709 172.725 24.9751 172.527V172.378C24.8501 172.347 24.6027 172.181 24.2329 171.878C23.8631 171.571 23.5897 171.292 23.4126 171.042C23.1991 170.746 23.0558 170.472 22.9829 170.222C22.9152 169.967 22.8813 169.701 22.8813 169.425C22.8813 168.649 23.2147 167.99 23.8813 167.449C24.548 166.907 25.4204 166.636 26.4985 166.636C27.4985 166.636 28.2642 166.863 28.7954 167.316C29.3319 167.764 29.6001 168.295 29.6001 168.91C29.6001 169.54 29.3267 170.066 28.7798 170.488C28.4777 170.722 28.061 170.933 27.5298 171.121V171.23C28.2902 171.777 28.811 172.222 29.0923 172.566C29.5715 173.149 29.811 173.829 29.811 174.605C29.811 175.631 29.4569 176.431 28.7485 177.003C28.0402 177.576 27.1366 177.863 26.0376 177.863C25.2199 177.863 24.4621 177.636 23.7642 177.183C23.0662 176.725 22.7173 176.05 22.7173 175.16Z" fill="black"/>
<path d="M27.9365 150.612V146.058H27.8271L24.7021 150.464V150.612H27.9365ZM23.9365 150.573C23.9782 150.485 24.0225 150.407 24.0693 150.339C24.1162 150.266 24.2594 150.06 24.499 149.722L26.1631 147.354L28.3115 144.519L28.96 143.683H30.2334V150.612H31.2334V152.394H30.2334V154.683H27.9209V152.394H23.9365V150.573ZM35.8428 149.925C35.9626 149.925 36.098 149.901 36.249 149.854C36.4053 149.808 36.499 149.763 36.5303 149.722C36.5563 149.69 36.5876 149.503 36.624 149.159C36.6605 148.815 36.6787 148.409 36.6787 147.94C36.6787 147.42 36.6683 146.953 36.6475 146.542C36.6266 146.125 36.5876 145.766 36.5303 145.464C36.4626 145.104 36.374 144.826 36.2646 144.628C36.0771 144.295 35.8141 144.128 35.4756 144.128C35.1006 144.128 34.8298 144.313 34.6631 144.683C34.4964 145.047 34.4131 145.586 34.4131 146.3C34.4131 147.503 34.5225 148.409 34.7412 149.019C34.96 149.623 35.3271 149.925 35.8428 149.925ZM32.124 154.503C32.9834 154.331 33.7021 154.052 34.2803 153.667C35.3167 152.964 36.012 151.896 36.3662 150.464L36.2881 150.409C36.0693 150.482 35.8949 150.534 35.7646 150.565C35.5094 150.623 35.2412 150.651 34.96 150.651C34.1214 150.651 33.4235 150.362 32.8662 149.784C32.3089 149.206 32.0303 148.42 32.0303 147.425C32.0303 146.274 32.374 145.362 33.0615 144.69C33.749 144.019 34.5615 143.683 35.499 143.683C36.5771 143.683 37.4626 144.099 38.1553 144.933C38.8532 145.761 39.2021 146.857 39.2021 148.222C39.2021 150.274 38.4105 151.922 36.8271 153.167C35.499 154.214 33.9313 154.795 32.124 154.909V154.503Z" fill="black"/>
<path d="M36.3545 130.322C36.3545 130.051 36.443 129.822 36.6201 129.635C36.7972 129.447 37.0368 129.354 37.3389 129.354C37.7243 129.354 38.2425 129.588 38.8936 130.057C39.5446 130.52 40.0498 130.752 40.4092 130.752C40.8311 130.752 41.1956 130.604 41.5029 130.307C41.8102 130.01 41.9639 129.609 41.9639 129.104C41.9639 128.588 41.7894 128.15 41.4404 127.791C41.0915 127.432 40.6982 127.153 40.2607 126.955C39.792 126.742 39.2607 126.585 38.667 126.486C38.2816 126.424 37.6644 126.364 36.8154 126.307L38.3701 120.783H43.5186L42.8311 122.822H38.3857L38.0342 124.119C39.2738 124.156 40.279 124.335 41.0498 124.658C42.4977 125.262 43.2217 126.335 43.2217 127.877C43.2217 129.002 42.7894 129.929 41.9248 130.658C41.0602 131.382 39.9743 131.744 38.667 131.744C38.0055 131.744 37.4535 131.614 37.0107 131.354C36.5732 131.093 36.3545 130.749 36.3545 130.322ZM46.8857 128.041C46.8962 129.343 46.9925 130.223 47.1748 130.682C47.3571 131.135 47.6331 131.361 48.0029 131.361C48.4665 131.361 48.779 130.939 48.9404 130.096C49.029 129.632 49.0732 128.947 49.0732 128.041V124.377C49.0732 123.08 48.9795 122.205 48.792 121.752C48.6097 121.294 48.3415 121.064 47.9873 121.064C47.6279 121.064 47.3545 121.296 47.167 121.76C46.9795 122.218 46.8857 123.09 46.8857 124.377V128.041ZM44.3701 126.283C44.3701 124.372 44.7972 122.893 45.6514 121.846C46.3285 121.012 47.1045 120.596 47.9795 120.596C48.9899 120.596 49.8415 121.109 50.5342 122.135C51.2373 123.187 51.5889 124.51 51.5889 126.104C51.5889 127.984 51.1904 129.447 50.3936 130.494C49.7217 131.374 48.9196 131.814 47.9873 131.814C47.3311 131.814 46.7712 131.622 46.3076 131.236C45.8441 130.851 45.4482 130.354 45.1201 129.744C44.8389 129.229 44.641 128.637 44.5264 127.971C44.4587 127.58 44.4066 127.018 44.3701 126.283Z" fill="black"/>
<path d="M50.9517 108.901C50.9517 108.63 51.0402 108.401 51.2173 108.213C51.3944 108.026 51.634 107.932 51.936 107.932C52.3215 107.932 52.8397 108.167 53.4907 108.635C54.1418 109.099 54.647 109.331 55.0063 109.331C55.4282 109.331 55.7928 109.182 56.1001 108.885C56.4074 108.588 56.561 108.187 56.561 107.682C56.561 107.167 56.3866 106.729 56.0376 106.37C55.6886 106.01 55.2954 105.732 54.8579 105.534C54.3892 105.32 53.8579 105.164 53.2642 105.065C52.8787 105.002 52.2616 104.943 51.4126 104.885L52.9673 99.3618H58.1157L57.4282 101.401H52.9829L52.6313 102.698C53.8709 102.734 54.8761 102.914 55.647 103.237C57.0949 103.841 57.8188 104.914 57.8188 106.456C57.8188 107.581 57.3866 108.508 56.522 109.237C55.6574 109.961 54.5715 110.323 53.2642 110.323C52.6027 110.323 52.0506 110.193 51.6079 109.932C51.1704 109.672 50.9517 109.328 50.9517 108.901ZM59.6704 109.792C60.4829 109.792 61.0037 109.682 61.2329 109.463C61.4621 109.239 61.5767 108.818 61.5767 108.198V102.034C61.5767 101.638 61.5298 101.357 61.436 101.19C61.3475 101.023 61.1808 100.94 60.936 100.94C60.8058 100.94 60.6053 100.984 60.3345 101.073C60.1626 101.125 59.9282 101.208 59.6313 101.323V100.917L63.6704 99.1743H63.9517V108.292C63.9517 108.875 64.0454 109.271 64.2329 109.479C64.4204 109.687 64.8996 109.792 65.6704 109.792V110.174H59.6704V109.792Z" fill="black"/>
<path d="M68.8672 87.9492C68.8672 87.6784 68.9557 87.4492 69.1328 87.2617C69.3099 87.0742 69.5495 86.9805 69.8516 86.9805C70.237 86.9805 70.7552 87.2148 71.4062 87.6836C72.0573 88.1471 72.5625 88.3789 72.9219 88.3789C73.3438 88.3789 73.7083 88.2305 74.0156 87.9336C74.3229 87.6367 74.4766 87.2357 74.4766 86.7305C74.4766 86.2148 74.3021 85.7773 73.9531 85.418C73.6042 85.0586 73.2109 84.7799 72.7734 84.582C72.3047 84.3685 71.7734 84.2122 71.1797 84.1133C70.7943 84.0508 70.1771 83.9909 69.3281 83.9336L70.8828 78.4102H76.0312L75.3438 80.4492H70.8984L70.5469 81.7461C71.7865 81.7826 72.7917 81.9622 73.5625 82.2852C75.0104 82.8893 75.7344 83.9622 75.7344 85.5039C75.7344 86.6289 75.3021 87.556 74.4375 88.2852C73.5729 89.0091 72.487 89.3711 71.1797 89.3711C70.5182 89.3711 69.9661 89.2409 69.5234 88.9805C69.0859 88.7201 68.8672 88.3763 68.8672 87.9492ZM76.7891 88.8555C78.4922 87.0117 79.6016 85.7279 80.1172 85.0039C80.9089 83.9102 81.3047 82.9414 81.3047 82.0977C81.3047 81.5977 81.151 81.1315 80.8438 80.6992C80.5417 80.2617 80.0703 80.043 79.4297 80.043C78.8672 80.043 78.3932 80.2383 78.0078 80.6289C77.7995 80.8424 77.6146 81.1289 77.4531 81.4883H77.0156C77.3698 80.3789 77.8594 79.5586 78.4844 79.0273C79.1094 78.4909 79.8125 78.2227 80.5938 78.2227C81.3333 78.2227 82.0052 78.4805 82.6094 78.9961C83.2135 79.5065 83.5156 80.2591 83.5156 81.2539C83.5156 81.7747 83.3724 82.3086 83.0859 82.8555C82.8047 83.4023 82.3281 83.9961 81.6562 84.6367L79.2188 86.9648V87.0977H81.4922C82.2839 87.0977 82.7995 87.0326 83.0391 86.9023C83.2839 86.7721 83.5286 86.4232 83.7734 85.8555H84.1562L83.4375 89.2227H76.7891V88.8555Z" fill="black"/>
<path d="M87.6299 70.2993C87.6299 70.0285 87.7184 69.7993 87.8955 69.6118C88.0726 69.4243 88.3122 69.3306 88.6143 69.3306C88.9997 69.3306 89.5179 69.5649 90.1689 70.0337C90.82 70.4972 91.3252 70.729 91.6846 70.729C92.1064 70.729 92.471 70.5806 92.7783 70.2837C93.0856 69.9868 93.2393 69.5858 93.2393 69.0806C93.2393 68.5649 93.0648 68.1274 92.7158 67.7681C92.3669 67.4087 91.9736 67.13 91.5361 66.9321C91.0674 66.7186 90.5361 66.5623 89.9424 66.4634C89.557 66.4009 88.9398 66.341 88.0908 66.2837L89.6455 60.7603H94.7939L94.1064 62.7993H89.6611L89.3096 64.0962C90.5492 64.1326 91.5544 64.3123 92.3252 64.6353C93.7731 65.2394 94.4971 66.3123 94.4971 67.854C94.4971 68.979 94.0648 69.9061 93.2002 70.6353C92.3356 71.3592 91.2497 71.7212 89.9424 71.7212C89.2809 71.7212 88.7288 71.591 88.2861 71.3306C87.8486 71.0701 87.6299 70.7264 87.6299 70.2993ZM96.5752 69.4321C97.0596 69.4321 97.557 69.6951 98.0674 70.2212C98.583 70.742 99.0075 71.0024 99.3408 71.0024C99.9137 71.0024 100.323 70.8097 100.567 70.4243C100.817 70.0337 100.942 69.591 100.942 69.0962C100.942 68.1847 100.56 67.4399 99.7939 66.8618C99.3564 66.5389 98.6637 66.2082 97.7158 65.8696V65.6118C98.3617 65.3879 98.8226 65.1717 99.0986 64.9634C99.5726 64.604 99.8096 64.117 99.8096 63.5024C99.8096 62.9712 99.6481 62.5675 99.3252 62.2915C99.0075 62.0103 98.6012 61.8696 98.1064 61.8696C97.6481 61.8696 97.234 62.0363 96.8643 62.3696C96.6559 62.5571 96.4346 62.8358 96.2002 63.2056L95.8643 63.0181C96.1143 62.4868 96.471 62.0129 96.9346 61.5962C97.6742 60.9295 98.5387 60.5962 99.5283 60.5962C100.211 60.5962 100.804 60.7889 101.31 61.1743C101.815 61.5597 102.093 62.0623 102.146 62.6821C102.146 63.1248 102.047 63.5207 101.849 63.8696C101.656 64.2134 101.341 64.4972 100.903 64.7212V64.8384C101.544 65.0936 102.013 65.479 102.31 65.9946C102.606 66.505 102.755 67.0441 102.755 67.6118C102.755 68.7576 102.312 69.7342 101.427 70.5415C100.505 71.3905 99.3382 71.8149 97.9268 71.8149C97.2393 71.8149 96.6663 71.6847 96.208 71.4243C95.7497 71.1639 95.5205 70.8201 95.5205 70.3931C95.5205 70.1639 95.6012 69.9478 95.7627 69.7446C95.9294 69.5363 96.2002 69.4321 96.5752 69.4321Z" fill="black"/>
<path d="M108.211 54.666C108.211 54.3952 108.3 54.166 108.477 53.9785C108.654 53.791 108.894 53.6973 109.196 53.6973C109.581 53.6973 110.099 53.9316 110.75 54.4004C111.402 54.8639 111.907 55.0957 112.266 55.0957C112.688 55.0957 113.053 54.9473 113.36 54.6504C113.667 54.3535 113.821 53.9525 113.821 53.4473C113.821 52.9316 113.646 52.4941 113.297 52.1348C112.948 51.7754 112.555 51.4967 112.118 51.2988C111.649 51.0853 111.118 50.929 110.524 50.8301C110.139 50.7676 109.521 50.7077 108.672 50.6504L110.227 45.127H115.375L114.688 47.166H110.243L109.891 48.4629C111.131 48.4993 112.136 48.679 112.907 49.002C114.355 49.6061 115.079 50.679 115.079 52.2207C115.079 53.3457 114.646 54.2728 113.782 55.002C112.917 55.7259 111.831 56.0879 110.524 56.0879C109.862 56.0879 109.31 55.9577 108.868 55.6973C108.43 55.4368 108.211 55.0931 108.211 54.666ZM120.149 51.8691V47.3145H120.04L116.915 51.7207V51.8691H120.149ZM116.149 51.8301C116.191 51.7415 116.235 51.6634 116.282 51.5957C116.329 51.5228 116.472 51.3171 116.711 50.9785L118.375 48.6113L120.524 45.7754L121.172 44.9395H122.446V51.8691H123.446V53.6504H122.446V55.9395H120.133V53.6504H116.149V51.8301Z" fill="black"/>
<path d="M130.508 41.1953C130.508 40.9245 130.596 40.6953 130.773 40.5078C130.951 40.3203 131.19 40.2266 131.492 40.2266C131.878 40.2266 132.396 40.4609 133.047 40.9297C133.698 41.3932 134.203 41.625 134.562 41.625C134.984 41.625 135.349 41.4766 135.656 41.1797C135.964 40.8828 136.117 40.4818 136.117 39.9766C136.117 39.4609 135.943 39.0234 135.594 38.6641C135.245 38.3047 134.852 38.026 134.414 37.8281C133.945 37.6146 133.414 37.4583 132.82 37.3594C132.435 37.2969 131.818 37.237 130.969 37.1797L132.523 31.6562H137.672L136.984 33.6953H132.539L132.188 34.9922C133.427 35.0286 134.432 35.2083 135.203 35.5312C136.651 36.1354 137.375 37.2083 137.375 38.75C137.375 39.875 136.943 40.8021 136.078 41.5312C135.214 42.2552 134.128 42.6172 132.82 42.6172C132.159 42.6172 131.607 42.487 131.164 42.2266C130.727 41.9661 130.508 41.6224 130.508 41.1953ZM138.508 41.1953C138.508 40.9245 138.596 40.6953 138.773 40.5078C138.951 40.3203 139.19 40.2266 139.492 40.2266C139.878 40.2266 140.396 40.4609 141.047 40.9297C141.698 41.3932 142.203 41.625 142.562 41.625C142.984 41.625 143.349 41.4766 143.656 41.1797C143.964 40.8828 144.117 40.4818 144.117 39.9766C144.117 39.4609 143.943 39.0234 143.594 38.6641C143.245 38.3047 142.852 38.026 142.414 37.8281C141.945 37.6146 141.414 37.4583 140.82 37.3594C140.435 37.2969 139.818 37.237 138.969 37.1797L140.523 31.6562H145.672L144.984 33.6953H140.539L140.188 34.9922C141.427 35.0286 142.432 35.2083 143.203 35.5312C144.651 36.1354 145.375 37.2083 145.375 38.75C145.375 39.875 144.943 40.8021 144.078 41.5312C143.214 42.2552 142.128 42.6172 140.82 42.6172C140.159 42.6172 139.607 42.487 139.164 42.2266C138.727 41.9661 138.508 41.6224 138.508 41.1953Z" fill="black"/>
<path d="M152.752 30.7344C152.752 30.4635 152.841 30.2344 153.018 30.0469C153.195 29.8594 153.435 29.7656 153.737 29.7656C154.122 29.7656 154.64 30 155.292 30.4688C155.943 30.9323 156.448 31.1641 156.807 31.1641C157.229 31.1641 157.594 31.0156 157.901 30.7188C158.208 30.4219 158.362 30.0208 158.362 29.5156C158.362 29 158.187 28.5625 157.838 28.2031C157.489 27.8438 157.096 27.5651 156.659 27.3672C156.19 27.1536 155.659 26.9974 155.065 26.8984C154.68 26.8359 154.062 26.776 153.213 26.7188L154.768 21.1953H159.917L159.229 23.2344H154.784L154.432 24.5312C155.672 24.5677 156.677 24.7474 157.448 25.0703C158.896 25.6745 159.62 26.7474 159.62 28.2891C159.62 29.4141 159.187 30.3411 158.323 31.0703C157.458 31.7943 156.372 32.1562 155.065 32.1562C154.403 32.1562 153.851 32.026 153.409 31.7656C152.971 31.5052 152.752 31.1615 152.752 30.7344ZM164.182 25.9922C163.88 25.9922 163.687 26.0391 163.604 26.1328C163.521 26.2266 163.463 26.3828 163.432 26.6016C163.417 26.7318 163.401 26.9193 163.385 27.1641C163.37 27.4036 163.362 27.6641 163.362 27.9453C163.362 28.4974 163.372 28.9792 163.393 29.3906C163.414 29.7969 163.453 30.151 163.51 30.4531C163.578 30.8281 163.687 31.1458 163.838 31.4062C163.995 31.6615 164.234 31.7891 164.557 31.7891C165.01 31.7891 165.305 31.5625 165.44 31.1094C165.523 30.8281 165.565 30.2578 165.565 29.3984C165.565 28.1016 165.456 27.2109 165.237 26.7266C165.018 26.237 164.667 25.9922 164.182 25.9922ZM167.917 21.4219C166.786 21.6198 165.864 22.0677 165.151 22.7656C164.443 23.4635 163.95 24.3594 163.674 25.4531L163.752 25.5078C163.94 25.4453 164.101 25.3984 164.237 25.3672C164.502 25.3047 164.776 25.2734 165.057 25.2734C165.844 25.2734 166.528 25.5365 167.112 26.0625C167.695 26.5885 167.987 27.3958 167.987 28.4844C167.987 29.7031 167.635 30.6328 166.932 31.2734C166.229 31.9141 165.422 32.2344 164.51 32.2344C163.495 32.2344 162.627 31.8333 161.909 31.0312C161.195 30.224 160.838 29.112 160.838 27.6953C160.838 25.7526 161.557 24.1641 162.995 22.9297C164.302 21.8099 165.943 21.1693 167.917 21.0078V21.4219Z" fill="black"/>
<path d="M178.16 21.9395C178.16 21.6686 178.248 21.4395 178.425 21.252C178.602 21.0645 178.842 20.9707 179.144 20.9707C179.529 20.9707 180.048 21.2051 180.699 21.6738C181.35 22.1374 181.855 22.3691 182.214 22.3691C182.636 22.3691 183.001 22.2207 183.308 21.9238C183.615 21.627 183.769 21.2259 183.769 20.7207C183.769 20.2051 183.595 19.7676 183.246 19.4082C182.897 19.0488 182.503 18.7702 182.066 18.5723C181.597 18.3587 181.066 18.2025 180.472 18.1035C180.087 18.041 179.47 17.9811 178.621 17.9238L180.175 12.4004H185.324L184.636 14.4395H180.191L179.839 15.7363C181.079 15.7728 182.084 15.9525 182.855 16.2754C184.303 16.8796 185.027 17.9525 185.027 19.4941C185.027 20.6191 184.595 21.5462 183.73 22.2754C182.865 22.9993 181.779 23.3613 180.472 23.3613C179.811 23.3613 179.259 23.2311 178.816 22.9707C178.378 22.7103 178.16 22.3665 178.16 21.9395ZM186.785 12.4004H193.433L189.675 23.2129H188.16L191.285 14.7129C191.279 14.6504 191.266 14.6087 191.246 14.5879H188.191C187.691 14.5879 187.324 14.6686 187.089 14.8301C186.86 14.9915 186.654 15.3665 186.472 15.9551H186.082L186.785 12.4004Z" fill="black"/>
<path d="M203.257 16.2041C203.257 15.9333 203.345 15.7041 203.522 15.5166C203.7 15.3291 203.939 15.2354 204.241 15.2354C204.627 15.2354 205.145 15.4697 205.796 15.9385C206.447 16.402 206.952 16.6338 207.312 16.6338C207.733 16.6338 208.098 16.4854 208.405 16.1885C208.713 15.8916 208.866 15.4906 208.866 14.9854C208.866 14.4697 208.692 14.0322 208.343 13.6729C207.994 13.3135 207.601 13.0348 207.163 12.8369C206.694 12.6234 206.163 12.4671 205.569 12.3682C205.184 12.3057 204.567 12.2458 203.718 12.1885L205.272 6.66504H210.421L209.733 8.7041H205.288L204.937 10.001C206.176 10.0374 207.181 10.2171 207.952 10.54C209.4 11.1442 210.124 12.2171 210.124 13.7588C210.124 14.8838 209.692 15.8109 208.827 16.54C207.963 17.264 206.877 17.626 205.569 17.626C204.908 17.626 204.356 17.4958 203.913 17.2354C203.476 16.9749 203.257 16.6312 203.257 16.2041ZM215.624 10.7197C215.858 10.402 216.012 10.1546 216.085 9.97754C216.21 9.69108 216.272 9.34212 216.272 8.93066C216.272 8.35254 216.166 7.87858 215.952 7.50879C215.739 7.13379 215.369 6.94629 214.843 6.94629C214.463 6.94629 214.153 7.07129 213.913 7.32129C213.674 7.57129 213.554 7.88379 213.554 8.25879C213.554 8.85254 213.853 9.41504 214.452 9.94629C214.801 10.2588 215.192 10.5166 215.624 10.7197ZM213.233 14.9619C213.233 15.4098 213.304 15.8135 213.444 16.1729C213.7 16.8447 214.153 17.1807 214.804 17.1807C215.174 17.1807 215.494 17.0426 215.765 16.7666C216.041 16.4906 216.179 16.027 216.179 15.376C216.179 14.7458 215.973 14.2041 215.562 13.751C215.306 13.4697 214.801 13.0843 214.046 12.5947C213.744 13.0583 213.546 13.4124 213.452 13.6572C213.306 14.027 213.233 14.4619 213.233 14.9619ZM211.312 15.001C211.312 14.1833 211.603 13.5374 212.187 13.0635C212.504 12.7979 212.965 12.5661 213.569 12.3682V12.2197C213.444 12.1885 213.197 12.0218 212.827 11.7197C212.457 11.4124 212.184 11.1338 212.007 10.8838C211.793 10.5869 211.65 10.3135 211.577 10.0635C211.509 9.80827 211.476 9.54264 211.476 9.2666C211.476 8.49056 211.809 7.83171 212.476 7.29004C213.142 6.74837 214.015 6.47754 215.093 6.47754C216.093 6.47754 216.858 6.7041 217.39 7.15723C217.926 7.60514 218.194 8.13639 218.194 8.75098C218.194 9.38118 217.921 9.90723 217.374 10.3291C217.072 10.5635 216.655 10.7744 216.124 10.9619V11.0713C216.884 11.6182 217.405 12.0635 217.687 12.4072C218.166 12.9906 218.405 13.6702 218.405 14.4463C218.405 15.4723 218.051 16.2718 217.343 16.8447C216.634 17.4176 215.731 17.7041 214.632 17.7041C213.814 17.7041 213.056 17.4775 212.358 17.0244C211.66 16.5661 211.312 15.8916 211.312 15.001Z" fill="black"/>
<path d="M229.721 13.0947C229.721 12.8239 229.81 12.5947 229.987 12.4072C230.164 12.2197 230.403 12.126 230.706 12.126C231.091 12.126 231.609 12.3604 232.26 12.8291C232.911 13.2926 233.417 13.5244 233.776 13.5244C234.198 13.5244 234.562 13.376 234.87 13.0791C235.177 12.7822 235.331 12.3812 235.331 11.876C235.331 11.3604 235.156 10.9229 234.807 10.5635C234.458 10.2041 234.065 9.92546 233.627 9.72754C233.159 9.514 232.627 9.35775 232.034 9.25879C231.648 9.19629 231.031 9.13639 230.182 9.0791L231.737 3.55566H236.885L236.198 5.59473H231.752L231.401 6.8916C232.64 6.92806 233.646 7.10775 234.417 7.43066C235.864 8.03483 236.588 9.10775 236.588 10.6494C236.588 11.7744 236.156 12.7015 235.292 13.4307C234.427 14.1546 233.341 14.5166 232.034 14.5166C231.372 14.5166 230.82 14.3864 230.377 14.126C229.94 13.8656 229.721 13.5218 229.721 13.0947ZM241.565 9.61035C241.685 9.61035 241.82 9.58691 241.971 9.54004C242.127 9.49316 242.221 9.44889 242.252 9.40723C242.278 9.37598 242.31 9.18848 242.346 8.84473C242.383 8.50098 242.401 8.09473 242.401 7.62598C242.401 7.10514 242.39 6.639 242.37 6.22754C242.349 5.81087 242.31 5.4515 242.252 5.14941C242.185 4.79004 242.096 4.51139 241.987 4.31348C241.799 3.98014 241.536 3.81348 241.198 3.81348C240.823 3.81348 240.552 3.99837 240.385 4.36816C240.219 4.73275 240.135 5.27181 240.135 5.98535C240.135 7.18848 240.245 8.09473 240.463 8.7041C240.682 9.30827 241.049 9.61035 241.565 9.61035ZM237.846 14.1885C238.706 14.0166 239.424 13.738 240.002 13.3525C241.039 12.6494 241.734 11.5817 242.088 10.1494L242.01 10.0947C241.792 10.1676 241.617 10.2197 241.487 10.251C241.232 10.3083 240.963 10.3369 240.682 10.3369C239.844 10.3369 239.146 10.0479 238.588 9.46973C238.031 8.8916 237.752 8.10514 237.752 7.11035C237.752 5.95931 238.096 5.04785 238.784 4.37598C239.471 3.7041 240.284 3.36816 241.221 3.36816C242.299 3.36816 243.185 3.78483 243.877 4.61816C244.575 5.44629 244.924 6.54264 244.924 7.90723C244.924 9.95931 244.133 11.6077 242.549 12.8525C241.221 13.8994 239.653 14.4801 237.846 14.5947V14.1885Z" fill="black"/>
</svg>
